<?xml version="1.0" encoding="UTF-8" standalone="no"?>
<svg
   width="1024"
   height="1024"
   viewBox="0 0 207.1 207.1"
   version="1.1"
   id="svg22"
   sodipodi:docname="logo-halloween.svg"
   inkscape:version="1.4.2 (ebf0e940d0, 2025-05-08)"
   inkscape:export-filename="logo-halloween.png"
   inkscape:export-xdpi="96"
   inkscape:export-ydpi="96"
   xml:space="preserve"
   xmlns:inkscape="http://www.inkscape.org/namespaces/inkscape"
   xmlns:sodipodi="http://sodipodi.sourceforge.net/DTD/sodipodi-0.dtd"
   xmlns="http://www.w3.org/2000/svg"
   xmlns:svg="http://www.w3.org/2000/svg"
   xmlns:rdf="http://www.w3.org/1999/02/22-rdf-syntax-ns#"
   xmlns:cc="http://creativecommons.org/ns#"
   xmlns:dc="http://purl.org/dc/elements/1.1/"><sodipodi:namedview
     id="namedview22"
     pagecolor="#ffffff"
     bordercolor="#000000"
     borderopacity="0.25"
     inkscape:showpageshadow="2"
     inkscape:pageopacity="0.0"
     inkscape:pagecheckerboard="0"
     inkscape:deskcolor="#d1d1d1"
     showguides="true"
     inkscape:zoom="0.70710678"
     inkscape:cx="636.3961"
     inkscape:cy="634.27478"
     inkscape:window-width="2096"
     inkscape:window-height="1568"
     inkscape:window-x="0"
     inkscape:window-y="0"
     inkscape:window-maximized="0"
     inkscape:current-layer="g22" /><defs
     id="defs19"><style
       id="style1">
      .a {
        fill: #06283d;
      }

      .b {
        fill: url(#a);
      }

      .c {
        fill: #a59678;
      }

      .d {
        fill: url(#b);
      }
    </style><radialGradient
       id="a"
       cx="103.55"
       cy="103.55"
       fx="14.832241021269397"
       fy="15.612815806821033"
       r="196.89"
       gradientUnits="userSpaceOnUse"
       gradientTransform="translate(-4.7683716e-6)"><stop
         offset="0"
         stop-color="#746b7f"
         id="stop1"
         style="stop-color:#e56a05;stop-opacity:1;" /><stop
         offset="0.12"
         stop-color="#615b6f"
         id="stop2"
         style="stop-color:#c65b04;stop-opacity:1;" /><stop
         offset="0.25999999"
         stop-color="#514c60"
         id="stop3"
         style="stop-color:#a94e03;stop-opacity:1;" /><stop
         offset="0.37"
         stop-color="#4b475b"
         id="stop4"
         style="stop-color:#9f4903;stop-opacity:1;" /><stop
         offset="0.44"
         stop-color="#4f4b5f"
         id="stop5"
         style="stop-color:#a74d03;stop-opacity:1;" /><stop
         offset="0.50999999"
         stop-color="#5a566c"
         id="stop6"
         style="stop-color:#be5904;stop-opacity:1;" /><stop
         offset="0.58999997"
         stop-color="#6d6881"
         id="stop7"
         style="stop-color:#e46705;stop-opacity:1;" /><stop
         offset="0.67000002"
         stop-color="#87829e"
         id="stop8"
         style="stop-color:#fa8126;stop-opacity:1;" /><stop
         offset="0.74000001"
         stop-color="#a9a2c3"
         id="stop9"
         style="stop-color:#f77005;stop-opacity:1;" /><stop
         offset="0.77999997"
         stop-color="#bcb5d9"
         id="stop10"
         style="stop-color:#cf7a07;stop-opacity:1;" /></radialGradient><linearGradient
       id="b"
       x1="38.31"
       y1="53.82"
       x2="165.6"
       y2="163.88"
       gradientUnits="userSpaceOnUse"><stop
         offset="0.05"
         stop-color="#448491"
         id="stop11"
         style="stop-color:#dee8eb;stop-opacity:0.92249483;" /><stop
         offset="0.15000001"
         stop-color="#4a7986"
         id="stop12"
         style="stop-color:#e3edf0;stop-opacity:1;" /><stop
         offset="0.33000001"
         stop-color="#506e7b"
         id="stop13"
         style="stop-color:#e5ebee;stop-opacity:1;" /><stop
         offset="0.51999998"
         stop-color="#526a77"
         id="stop14"
         style="stop-color:#e5ebed;stop-opacity:1;" /><stop
         offset="0.60000002"
         stop-color="#56707c"
         id="stop15"
         style="stop-color:#e5ebed;stop-opacity:1;" /><stop
         offset="0.69999999"
         stop-color="#607f8b"
         id="stop16"
         style="stop-color:#e5ebed;stop-opacity:1;" /><stop
         offset="0.81999999"
         stop-color="#7099a3"
         id="stop17"
         style="stop-color:#e5ecee;stop-opacity:1;" /><stop
         offset="0.94"
         stop-color="#87bdc4"
         id="stop18"
         style="stop-color:#e2eff1;stop-opacity:1;" /><stop
         offset="1"
         stop-color="#94d1d6"
         id="stop19"
         style="stop-color:#e0f2f3;stop-opacity:1;" /></linearGradient><radialGradient
       id="a-5"
       cx="103.55"
       cy="103.55"
       fx="14.832241"
       fy="15.612816"
       r="196.89"
       gradientUnits="userSpaceOnUse"
       gradientTransform="translate(117.03948,-39.542209)"><stop
         offset="0"
         stop-color="#746b7f"
         id="stop1-2" /><stop
         offset="0.12"
         stop-color="#615b6f"
         id="stop2-7" /><stop
         offset="0.26"
         stop-color="#514c60"
         id="stop3-6" /><stop
         offset="0.37"
         stop-color="#4b475b"
         id="stop4-1" /><stop
         offset="0.44"
         stop-color="#4f4b5f"
         id="stop5-4" /><stop
         offset="0.51"
         stop-color="#5a566c"
         id="stop6-2" /><stop
         offset="0.59"
         stop-color="#6d6881"
         id="stop7-3" /><stop
         offset="0.67"
         stop-color="#87829e"
         id="stop8-2" /><stop
         offset="0.74"
         stop-color="#a9a2c3"
         id="stop9-2" /><stop
         offset="0.78"
         stop-color="#bcb5d9"
         id="stop10-1" /></radialGradient><style
       id="style1-3">.cls-1{fill:#ff9e17;}.cls-2{fill:#fff;}.cls-3{fill:#00dc0c;}</style></defs><title
     id="title19">Artboard 1</title><g
     id="g22"
     transform="matrix(0.80468748,0,0,0.80468748,20.224609,20.224609)"><rect
       class="b"
       x="4.6601943e-07"
       y="4.6601943e-07"
       width="207.10001"
       height="207.10001"
       rx="47.084118"
       id="rect20-8"
       style="fill:#000000;fill-opacity:1;stroke-width:1.07378" /><rect
       class="b"
       x="7.1199951"
       y="7.1199999"
       width="192.87"
       height="192.87"
       rx="40.057816"
       id="rect20"
       style="fill:url(#a)" /><g
       id="g32"
       transform="translate(-3.9714575)"><path
         class="a"
         d="M 113.3,188.39 C 105.13385,187.87904 97.294474,185.1065 90.06,179.43 83.80257,174.6342 78.578135,168.62405 74.7,161.76 69.863938,153.23489 65.883447,135.00919 58.39,123.87 53.956723,117.3475 47.466618,112.85815 41.61,107.76 36.341276,103.1305 29.408316,96.975635 25.51,86.75 20.070899,72.2968 25.364629,56.679938 30.7,46.2 39.581235,27.459928 60.011612,14.23427 80.19,19.78 c 6.623293,1.623772 12.542186,5.349832 16.87,10.62 4.56,5.64 6.4,12.73 7.89,22.34 1.32868,7.54009 1.10229,15.641087 4.22,22.73 2,4.2 5.82,6.65 8.33,8.27 6.54627,4.250824 16.16294,5.84073 28.93,4.9 6.94113,-0.804841 13.81247,-1.642201 20.68,0.15 14.33648,3.77191 19.47697,12.03733 22.59,25.67 1.07249,4.65199 3.85034,19.22617 0.09,32.1 -5.90028,19.26799 -22.00527,29.87139 -30.11,33.93 -19.6434,9.63269 -41.6221,8.32337 -46.38,7.9 z"
         id="path20"
         sodipodi:nodetypes="cccccccccccccccccc"
         style="fill:#000000;fill-opacity:1" /><path
         class="c"
         d="m 113.98,180.77 c -7.12428,-0.28365 -13.71826,-3.16624 -19.35,-7.44 C 89.218811,169.16362 84.702318,163.94993 81.35,158 77.00092,150.30282 72.870645,131.68156 64.65,119.51 59.921381,112.42283 52.945893,107.56088 46.63,102.06 41.685598,97.728704 35.902904,92.576553 32.65,84.12 27.86575,71.91698 33.609421,57.382401 37.5,49.74 44.553113,34.718011 61.080095,22.4926 78.19,27.18 c 5.062108,1.183811 9.596819,3.993857 12.91,8 3,3.77 4.75,8.84 6.28,18.7 1.331988,8.324452 1.421328,17.094797 4.89,24.89 3,6.13 8,9.41 11.07,11.36 8.07351,5.215444 19.26316,7.206902 33.66,6.11 6.04785,-0.592962 12.0619,-1.675638 18.05,-0.09 11.68618,3.111388 14.65895,9.08614 17.15,20 0.8124,3.51921 3.50329,16.95377 0.2,28.25 -5.41353,17.53914 -20.81279,26.53804 -26.23,29.23 -18.03023,8.85411 -38.83148,7.43959 -42.19,7.14 z"
         id="path21"
         sodipodi:nodetypes="cccccccccccccccccc"
         style="fill:#9d6bb2;fill-opacity:1" /><path
         class="d"
         d="m 76.59,33.19 c 3.801295,0.874747 7.205455,2.984764 9.68,6 2.23,2.75 3.62,7 5,15.73 1.365707,8.951448 1.677839,18.281765 5.43,26.65 3.73,7.7 10,11.77 13.29,13.88 11.16328,7.07332 24.61619,7.94449 37.47,7.09 7.67,-0.57 10.71,-1.72 15.95,-0.29 9.00827,2.21144 10.82611,7.08038 12.7,15.33 0.58265,2.51228 3.22398,15.08236 0.3,25.11 -4.56584,14.66608 -17.54654,22.68354 -23.04,25.4 -12.0038,5.8495 -27.72656,7.40788 -38.87,6.47 -5.94118,-0.21452 -11.42634,-2.60467 -16.1,-6.2 -4.75371,-3.64735 -8.720006,-8.21914 -11.66,-13.44 -4.114044,-7.40528 -8.225961,-26.17413 -16.97,-39 -4.949583,-7.55249 -12.288686,-12.79472 -19,-18.61 C 45.903355,93.041713 41.188954,88.792507 38.51,81.88 34.712681,71.691613 39.674334,59.241814 43.09,52.54 43.628514,51.389328 54.690056,28.397244 76.59,33.19 Z"
         id="path22"
         style="fill:url(#b)"
         sodipodi:nodetypes="cccccccccccccccccc" /><ellipse
         style="fill:#000000;fill-opacity:1;stroke-width:0.949928;stroke-linecap:round;stroke-linejoin:round"
         id="path36"
         cx="60.092525"
         cy="71.639771"
         rx="4.6207371"
         ry="11.018681"
         transform="rotate(-11.363496)" /><ellipse
         style="fill:#000000;fill-opacity:1;stroke-width:0.949928;stroke-linecap:round;stroke-linejoin:round"
         id="path36-2"
         cx="45.262844"
         cy="71.548805"
         rx="4.6207371"
         ry="11.018681"
         transform="rotate(-8.7532903)" /><ellipse
         style="fill:#000000;fill-opacity:1;stroke-width:0.949928;stroke-linecap:round;stroke-linejoin:round"
         id="path37"
         cx="32.387177"
         cy="116.12546"
         rx="7.4642673"
         ry="13.86221"
         transform="rotate(-24.293888)" /></g></g><metadata
     id="metadata37"><rdf:RDF><cc:Work
         rdf:about=""><dc:title>Artboard 1</dc:title></cc:Work></rdf:RDF></metadata></svg>
