<?xml version="1.0" encoding="UTF-8" standalone="no"?>
<svg
   width="3272.8987"
   height="824"
   viewBox="0 0 1694.5433 426.626"
   version="1.1"
   id="svg22"
   sodipodi:docname="logo-halloween-text-side.svg"
   inkscape:export-filename="logo-text.png"
   inkscape:export-xdpi="96"
   inkscape:export-ydpi="96"
   inkscape:version="1.4.2 (ebf0e940d0, 2025-05-08)"
   xmlns:inkscape="http://www.inkscape.org/namespaces/inkscape"
   xmlns:sodipodi="http://sodipodi.sourceforge.net/DTD/sodipodi-0.dtd"
   xmlns="http://www.w3.org/2000/svg"
   xmlns:svg="http://www.w3.org/2000/svg"
   xmlns:rdf="http://www.w3.org/1999/02/22-rdf-syntax-ns#"
   xmlns:cc="http://creativecommons.org/ns#"
   xmlns:dc="http://purl.org/dc/elements/1.1/">
  <sodipodi:namedview
     id="namedview22"
     pagecolor="#505050"
     bordercolor="#eeeeee"
     borderopacity="1"
     inkscape:showpageshadow="0"
     inkscape:pageopacity="0"
     inkscape:pagecheckerboard="0"
     inkscape:deskcolor="#505050"
     showgrid="false"
     showguides="true"
     inkscape:zoom="0.28234376"
     inkscape:cx="1011.1787"
     inkscape:cy="-12.396236"
     inkscape:window-width="1278"
     inkscape:window-height="1568"
     inkscape:window-x="0"
     inkscape:window-y="0"
     inkscape:window-maximized="0"
     inkscape:current-layer="g22">
    <inkscape:grid
       id="grid22"
       units="px"
       originx="8.1747476e-06"
       originy="0"
       spacingx="0.51775001"
       spacingy="0.51775"
       empcolor="#0099e5"
       empopacity="0.30196078"
       color="#0099e5"
       opacity="0.14902"
       empspacing="5"
       enabled="true"
       visible="false" />
  </sodipodi:namedview>
  <defs
     id="defs19">
    <style
       id="style1">
      .a {
        fill: #26283d;
      }

      .b {
        fill: url(#a);
      }

      .c {
        fill: #a59678;
      }

      .d {
        fill: url(#b);
      }
    </style>
    <radialGradient
       id="a"
       cx="103.55"
       cy="103.55"
       fx="14.832241"
       fy="15.612816"
       r="196.89"
       gradientUnits="userSpaceOnUse"
       gradientTransform="translate(-0.00499744)">
      <stop
         offset="0"
         stop-color="#746b7f"
         id="stop1" />
      <stop
         offset="0.12"
         stop-color="#615b6f"
         id="stop2" />
      <stop
         offset="0.26"
         stop-color="#514c60"
         id="stop3" />
      <stop
         offset="0.37"
         stop-color="#4b475b"
         id="stop4" />
      <stop
         offset="0.44"
         stop-color="#4f4b5f"
         id="stop5" />
      <stop
         offset="0.51"
         stop-color="#5a566c"
         id="stop6" />
      <stop
         offset="0.59"
         stop-color="#6d6881"
         id="stop7" />
      <stop
         offset="0.67"
         stop-color="#87829e"
         id="stop8" />
      <stop
         offset="0.74"
         stop-color="#a9a2c3"
         id="stop9" />
      <stop
         offset="0.78"
         stop-color="#bcb5d9"
         id="stop10" />
    </radialGradient>
    <linearGradient
       id="b"
       x1="38.310001"
       y1="53.82"
       x2="165.60001"
       y2="163.88"
       gradientUnits="userSpaceOnUse">
      <stop
         offset="0.05"
         stop-color="#448491"
         id="stop11" />
      <stop
         offset="0.15"
         stop-color="#4a7986"
         id="stop12" />
      <stop
         offset="0.33"
         stop-color="#506e7b"
         id="stop13" />
      <stop
         offset="0.52"
         stop-color="#526a77"
         id="stop14" />
      <stop
         offset="0.6"
         stop-color="#56707c"
         id="stop15" />
      <stop
         offset="0.7"
         stop-color="#607f8b"
         id="stop16" />
      <stop
         offset="0.82"
         stop-color="#7099a3"
         id="stop17" />
      <stop
         offset="0.94"
         stop-color="#87bdc4"
         id="stop18" />
      <stop
         offset="1"
         stop-color="#94d1d6"
         id="stop19" />
    </linearGradient>
    <radialGradient
       id="a-6"
       cx="103.55"
       cy="103.55"
       fx="14.832241"
       fy="15.612816"
       r="196.89"
       gradientUnits="userSpaceOnUse"
       gradientTransform="translate(-3.2384032e-6)">
      <stop
         offset="0"
         stop-color="#746b7f"
         id="stop1-7" />
      <stop
         offset="0.12"
         stop-color="#615b6f"
         id="stop2-5" />
      <stop
         offset="0.26"
         stop-color="#514c60"
         id="stop3-3" />
      <stop
         offset="0.37"
         stop-color="#4b475b"
         id="stop4-5" />
      <stop
         offset="0.44"
         stop-color="#4f4b5f"
         id="stop5-6" />
      <stop
         offset="0.51"
         stop-color="#5a566c"
         id="stop6-2" />
      <stop
         offset="0.59"
         stop-color="#6d6881"
         id="stop7-9" />
      <stop
         offset="0.67"
         stop-color="#87829e"
         id="stop8-1" />
      <stop
         offset="0.74"
         stop-color="#a9a2c3"
         id="stop9-2" />
      <stop
         offset="0.78"
         stop-color="#bcb5d9"
         id="stop10-7" />
    </radialGradient>
  </defs>
  <title
     id="title19">Artboard 1</title>
  <g
     id="g22"
     transform="matrix(2.0600001,0,0,2.0600001,-1.0987631e-6,0)"
     style="stroke-width:0.485437">
    <path
       style="font-size:67.4159px;font-family:Alata;-inkscape-font-specification:'Alata, Normal';fill:#000000;fill-opacity:1;stroke-width:0.949926;stroke-linecap:round;stroke-linejoin:round"
       d="M 229.65843,149.54069 V 54.24755 h 22.00668 l 0.20757,17.439249 q 3.737,-8.512017 12.04142,-14.117497 8.51202,-5.813074 20.34578,-5.813074 15.36318,0 23.04477,6.435911 7.68158,6.22832 10.1729,17.854496 2.69892,11.626177 2.69892,27.612165 v 45.88189 h -22.4219 v -45.25906 q 0,-16.608818 -3.32178,-25.328458 -3.11416,-8.71964 -14.74033,-8.71964 -6.0207,0 -12.45661,3.736997 -6.43591,3.736966 -10.79575,10.795716 -4.35981,7.058748 -4.35981,17.439285 v 47.33516 z m 159.44482,2.07608 q -12.66423,0 -23.66757,-6.02069 -10.79572,-6.0207 -17.43924,-17.23166 -6.64354,-11.21096 -6.64354,-26.78173 0,-14.947931 5.60548,-26.158893 5.81307,-11.210962 16.1936,-17.43928 10.58813,-6.228289 25.12084,-6.228289 8.71964,0 15.77839,3.114129 7.26638,2.906567 12.04139,7.266371 4.98265,4.152213 6.64354,8.096804 l 0.41521,-15.985982 h 21.38387 v 95.29314 h -21.17624 l -0.41522,-16.81644 q -2.07611,4.56742 -7.05875,8.92723 -4.77505,4.35981 -11.62617,7.26637 -6.85116,2.69892 -15.15559,2.69892 z m 3.737,-18.68493 q 7.68159,0 13.9099,-3.52938 6.43592,-3.73696 10.17292,-10.38049 3.94458,-6.64354 3.94458,-15.77839 v -1.45327 q 0,-9.342478 -3.94458,-16.193605 -3.737,-7.058748 -10.17292,-10.795746 -6.22831,-3.94459 -13.9099,-3.94459 -13.90988,0 -20.96863,8.927233 -6.85115,8.927263 -6.85115,22.006708 0,13.28707 6.85115,22.2143 7.05875,8.92723 20.96863,8.92723 z m 78.26923,67.05815 V 54.24755 h 21.59149 v 17.646872 q 4.77503,-8.512017 13.28705,-14.32512 8.71963,-5.813074 22.42191,-5.813074 12.87186,0 23.04477,5.397858 10.1729,5.397859 15.98598,16.401228 6.0207,11.003338 6.0207,27.819786 0,15.36314 -6.22833,26.78172 -6.22828,11.21096 -16.60881,17.43926 -10.38051,6.02069 -23.25236,6.02069 -12.24901,0 -20.96862,-4.35981 -8.71965,-4.35981 -13.70229,-12.04139 v 64.77442 z m 51.07214,-67.26574 q 14.11753,0 20.96865,-8.92727 7.05875,-8.92722 7.05875,-21.79908 0,-13.494658 -7.05875,-22.214298 -6.85112,-8.71964 -20.96865,-8.71964 -7.47397,0 -13.90988,3.529374 -6.43591,3.529406 -10.38053,10.172909 -3.94459,6.643533 -3.94459,15.986015 v 1.45327 q 0,9.13485 3.94459,16.1936 3.94462,6.85112 10.38053,10.58812 6.43591,3.737 13.90988,3.737 z m 117.29997,18.89252 q -12.66423,0 -23.66757,-6.02069 -10.79575,-6.0207 -17.43928,-17.23166 -6.64353,-11.21096 -6.64353,-26.78173 0,-14.947931 5.60548,-26.158893 5.8131,-11.210962 16.1936,-17.43928 10.58813,-6.228289 25.12087,-6.228289 8.71961,0 15.77836,3.114129 7.26637,2.906567 12.04142,7.266371 4.98265,4.152213 6.64354,8.096804 l 0.41521,-15.985982 h 21.38387 v 95.29314 h -21.17627 l -0.41522,-16.81644 q -2.07611,4.56742 -7.05875,8.92723 -4.77502,4.35981 -11.62617,7.26637 -6.85114,2.69892 -15.15556,2.69892 z m 3.737,-18.68493 q 7.68156,0 13.90987,-3.52938 6.43591,-3.73696 10.17291,-10.38049 3.94459,-6.64354 3.94459,-15.77839 v -1.45327 q 0,-9.342478 -3.94459,-16.193605 -3.737,-7.058748 -10.17291,-10.795746 -6.22831,-3.94459 -13.90987,-3.94459 -13.90991,0 -20.96866,8.927233 -6.85115,8.927263 -6.85115,22.006708 0,13.28707 6.85115,22.2143 7.05875,8.92723 20.96866,8.92723 z m 78.26904,16.60885 V 54.24755 h 22.42193 v 18.684926 q 3.32175,-9.342479 10.58812,-15.155552 7.47396,-6.020696 17.23166,-6.020696 6.64353,0 9.13486,1.245646 l -3.11417,22.629515 q -1.86851,-1.245645 -8.09679,-1.245645 -5.19027,0 -11.21097,2.283698 -6.02069,2.28373 -10.38053,8.096803 -4.15218,5.60548 -4.15218,15.778385 v 48.99606 z m 74.53202,0 V 54.24755 h 23.25236 v 95.29314 z M 807.64583,36.393054 q -6.43591,0 -10.79572,-4.359804 -4.15221,-4.359836 -4.15221,-10.795748 0,-5.813103 4.15221,-9.965316 4.35981,-4.1521819 10.79572,-4.1521819 6.43594,0 10.58812,4.1521819 4.35984,4.152213 4.35984,9.965316 0,6.435912 -4.35984,10.795748 -4.15218,4.359804 -10.58812,4.359804 z"
       id="text1"
       aria-label="napari&#10;" />
    <rect
       class="b"
       x="5.333801e-07"
       y="0"
       width="207.10001"
       height="207.10001"
       rx="47.084118"
       id="rect20-8"
       style="fill:#000000;fill-opacity:1;stroke-width:1.0737;stroke-dasharray:none" />
    <rect
       class="b"
       x="7.1199956"
       y="7.1199985"
       width="192.87"
       height="192.87"
       rx="40.057816"
       id="rect20"
       style="fill:#dd5803;fill-opacity:1" />
    <path
       class="a"
       d="m 109.32854,188.39 c -8.16615,-0.51096 -16.005522,-3.2835 -23.239996,-8.96 -6.25743,-4.7958 -11.481865,-10.80595 -15.36,-17.67 -4.836062,-8.52511 -8.816553,-26.75081 -16.31,-37.89 -4.433277,-6.5225 -10.923382,-11.01185 -16.78,-16.11 -5.268724,-4.6295 -12.201684,-10.784373 -16.1,-21.010001 -5.439101,-14.4532 -0.145371,-30.07006 5.19,-40.55 8.881235,-18.740072 29.311612,-31.96573 49.49,-26.42 6.623293,1.623772 12.542186,5.349832 16.87,10.62 4.56,5.64 6.4,12.73 7.889996,22.34 1.32868,7.54009 1.10229,15.64109 4.22,22.73 2,4.2 5.82,6.65 8.33,8.27 6.54627,4.25082 16.16294,5.84073 28.93,4.9 6.94113,-0.80484 13.81247,-1.6422 20.68,0.15 14.33648,3.77191 19.47697,12.037331 22.59,25.670001 1.07249,4.65199 3.85034,19.22617 0.09,32.1 -5.90028,19.26799 -22.00527,29.87139 -30.11,33.93 -19.6434,9.63269 -41.6221,8.32337 -46.38,7.9 z"
       id="path20"
       sodipodi:nodetypes="cccccccccccccccccc"
       style="fill:#000000;fill-opacity:1;stroke-width:1.00006;stroke-dasharray:none" />
    <path
       class="c"
       d="m 110.00854,180.77 c -7.12428,-0.28365 -13.718256,-3.16624 -19.349996,-7.44 -5.411189,-4.16638 -9.927682,-9.38007 -13.28,-15.33 -4.34908,-7.69718 -8.479355,-26.31844 -16.7,-38.49 -4.728619,-7.08717 -11.704107,-11.94912 -18.02,-17.45 -4.944402,-4.331303 -10.727096,-9.483451 -13.98,-17.940001 -4.78425,-12.20302 0.959421,-26.7376 4.85,-34.38 7.053113,-15.021989 23.580095,-27.2474 40.69,-22.56 5.062108,1.183811 9.596819,3.993857 12.91,8 3,3.77 4.75,8.84 6.28,18.7 1.331988,8.32445 1.421328,17.0948 4.89,24.89 2.999996,6.13 7.999996,9.41 11.069996,11.36 8.07351,5.21544 19.26316,7.206898 33.66,6.11 6.04785,-0.59296 12.0619,-1.67564 18.05,-0.09 11.68618,3.111388 14.65895,9.086141 17.15,20.000001 0.8124,3.51921 3.50329,16.95377 0.2,28.25 -5.41353,17.53914 -20.81279,26.53804 -26.23,29.23 -18.03023,8.85411 -38.83148,7.43959 -42.19,7.14 z"
       id="path21"
       sodipodi:nodetypes="cccccccccccccccccc"
       style="fill:#9d6bb2;fill-opacity:1;stroke-width:1.00006;stroke-dasharray:none" />
    <path
       class="d"
       d="m 72.618544,33.189999 c 3.801295,0.874747 7.205455,2.984764 9.68,6 2.23,2.75 3.62,7 5,15.73 1.365707,8.95145 1.677839,18.28176 5.43,26.65 3.73,7.7 9.999996,11.77 13.289996,13.88 11.16328,7.073321 24.61619,7.944491 37.47,7.090001 7.67,-0.57 10.71,-1.72 15.95,-0.29 9.00827,2.21144 10.82611,7.08038 12.7,15.33 0.58265,2.51228 3.22398,15.08236 0.3,25.11 -4.56584,14.66608 -17.54654,22.68354 -23.04,25.4 -12.0038,5.8495 -27.72656,7.40788 -38.87,6.47 -5.94118,-0.21452 -11.426336,-2.60467 -16.099996,-6.2 -4.75371,-3.64735 -8.720006,-8.21914 -11.66,-13.44 -4.114044,-7.40528 -8.225961,-26.17413 -16.97,-39 -4.949583,-7.55249 -12.288686,-12.79472 -19,-18.610003 -4.866645,-4.268288 -9.581046,-8.517488 -12.26,-15.429998 -3.797319,-10.18839 1.164334,-22.63819 4.58,-29.34 0.538514,-1.15067 11.600056,-24.142756 33.5,-19.35 z"
       id="path22"
       style="fill:#cdd7db;fill-opacity:1;stroke-width:1.00006;stroke-dasharray:none"
       sodipodi:nodetypes="cccccccccccccccccc" />
    <ellipse
       style="fill:#000000;fill-opacity:1;stroke-width:1.00006;stroke-linecap:round;stroke-linejoin:round;stroke-dasharray:none"
       id="path36"
       cx="56.198921"
       cy="70.857277"
       rx="4.6207371"
       ry="11.018681"
       transform="rotate(-11.363496)" />
    <ellipse
       style="fill:#000000;fill-opacity:1;stroke-width:1.00006;stroke-linecap:round;stroke-linejoin:round;stroke-dasharray:none"
       id="path36-2"
       cx="41.337646"
       cy="70.944427"
       rx="4.6207371"
       ry="11.018681"
       transform="rotate(-8.7532903)" />
    <ellipse
       style="fill:#000000;fill-opacity:1;stroke-width:1.00006;stroke-linecap:round;stroke-linejoin:round;stroke-dasharray:none"
       id="path37"
       cx="28.767406"
       cy="114.49154"
       rx="7.4642673"
       ry="13.86221"
       transform="rotate(-24.293888)" />
    <path
       style="fill:none;fill-opacity:1;stroke:#000000;stroke-width:6.28337;stroke-linecap:round;stroke-linejoin:round;stroke-dasharray:none;stroke-opacity:1"
       d="m 131.69952,3.601311 c 0,0 20.10679,7.960097 26.13883,36.109608 0,0 16.58811,-8.545385 24.63083,7.03738 16.81862,-7.10873 21.0395,19.10146 21.0395,19.10146"
       id="path1"
       sodipodi:nodetypes="cccc" />
    <path
       style="fill:none;fill-opacity:1;stroke:#000000;stroke-width:6.28337;stroke-linecap:round;stroke-linejoin:round;stroke-dasharray:none;stroke-opacity:1"
       d="M 159.84903,37.197574 180.62229,9.190095"
       id="path2"
       sodipodi:nodetypes="cc" />
    <path
       style="fill:none;fill-opacity:1;stroke:#000000;stroke-width:6.28337;stroke-linecap:round;stroke-linejoin:round;stroke-dasharray:none;stroke-opacity:1"
       d="m 182.46918,46.748299 7.70384,-30.520825"
       id="path3"
       sodipodi:nodetypes="cc" />
    <path
       style="fill:none;fill-opacity:1;stroke:#000000;stroke-width:6.28337;stroke-linecap:round;stroke-linejoin:round;stroke-dasharray:none;stroke-opacity:1"
       d="m 154.31966,3.770024 c 0,0 17.5621,5.230698 15.916,19.423812 0,0 15.162,-2.190997 16.08544,8.294052 0,0 10.7255,-6.103058 15.7522,7.469031"
       id="path4" />
    <path
       style="fill:none;fill-opacity:1;stroke:#000000;stroke-width:6.28337;stroke-linecap:round;stroke-linejoin:round;stroke-dasharray:none;stroke-opacity:1"
       d="m 74.512465,204.03113 c 0,0 -19.975162,-8.28486 -25.550268,-36.52843 0,0 -16.724404,8.27547 -24.51356,-7.43557 C 7.5170329,166.90239 3.7214239,140.62725 3.7214239,140.62725"
       id="path1-9"
       sodipodi:nodetypes="cccc" />
    <path
       style="fill:none;fill-opacity:1;stroke:#000000;stroke-width:6.28337;stroke-linecap:round;stroke-linejoin:round;stroke-dasharray:none;stroke-opacity:1"
       d="M 46.911054,169.98315 25.686681,197.65032"
       id="path2-4"
       sodipodi:nodetypes="cc" />
    <path
       style="fill:none;fill-opacity:1;stroke:#000000;stroke-width:6.28337;stroke-linecap:round;stroke-linejoin:round;stroke-dasharray:none;stroke-opacity:1"
       d="m 24.448637,160.06713 -8.197395,30.39198"
       id="path3-9"
       sodipodi:nodetypes="cc" />
    <path
       style="fill:none;fill-opacity:1;stroke:#000000;stroke-width:6.28337;stroke-linecap:round;stroke-linejoin:round;stroke-dasharray:none;stroke-opacity:1"
       d="m 51.898031,203.49589 c 0,0 -17.475035,-5.51458 -15.599164,-19.67916 0,0 -15.195483,1.94525 -15.948928,-8.55361 0,0 -10.8229871,5.92845 -15.6291021,-7.7233"
       id="path4-0" />
  </g>
  <metadata
     id="metadata22">
    <rdf:RDF>
      <cc:Work
         rdf:about="">
        <dc:title>Artboard 1</dc:title>
      </cc:Work>
    </rdf:RDF>
  </metadata>
</svg>
