<?xml version="1.0" encoding="UTF-8" standalone="no"?>
<svg
   width="1024"
   height="1024"
   viewBox="0 0 207.1 207.1"
   version="1.1"
   id="svg22"
   sodipodi:docname="logo.svg"
   inkscape:version="1.4.2 (f4327f4, 2025-05-13)"
   xmlns:inkscape="http://www.inkscape.org/namespaces/inkscape"
   xmlns:sodipodi="http://sodipodi.sourceforge.net/DTD/sodipodi-0.dtd"
   xmlns="http://www.w3.org/2000/svg"
   xmlns:svg="http://www.w3.org/2000/svg">
  <sodipodi:namedview
     id="namedview22"
     pagecolor="#ffffff"
     bordercolor="#000000"
     borderopacity="0.25"
     inkscape:showpageshadow="2"
     inkscape:pageopacity="0.0"
     inkscape:pagecheckerboard="0"
     inkscape:deskcolor="#d1d1d1"
     showguides="true"
     inkscape:zoom="0.5"
     inkscape:cx="176"
     inkscape:cy="641"
     inkscape:window-width="1920"
     inkscape:window-height="1129"
     inkscape:window-x="-8"
     inkscape:window-y="-8"
     inkscape:window-maximized="1"
     inkscape:current-layer="svg22">
    <sodipodi:guide
       position="186.87361,148.0372"
       orientation="0,-1"
       id="guide32"
       inkscape:locked="false" />
    <sodipodi:guide
       position="148.94448,186.93565"
       orientation="1,0"
       id="guide33"
       inkscape:locked="false" />
  </sodipodi:namedview>
  <defs
     id="defs19">
    <style
       id="style1">
      .a {
        fill: #06283d;
      }

      .b {
        fill: url(#a);
      }

      .c {
        fill: #a59678;
      }

      .d {
        fill: url(#b);
      }
    </style>
    <radialGradient
       id="a"
       cx="103.55"
       cy="103.55"
       fx="14.832241021269397"
       fy="15.612815806821033"
       r="196.89"
       gradientUnits="userSpaceOnUse"
       gradientTransform="translate(-4.7683716e-6)">
      <stop
         offset="0"
         stop-color="#746b7f"
         id="stop1" />
      <stop
         offset="0.12"
         stop-color="#615b6f"
         id="stop2" />
      <stop
         offset="0.26"
         stop-color="#514c60"
         id="stop3" />
      <stop
         offset="0.37"
         stop-color="#4b475b"
         id="stop4" />
      <stop
         offset="0.44"
         stop-color="#4f4b5f"
         id="stop5" />
      <stop
         offset="0.51"
         stop-color="#5a566c"
         id="stop6" />
      <stop
         offset="0.59"
         stop-color="#6d6881"
         id="stop7" />
      <stop
         offset="0.67"
         stop-color="#87829e"
         id="stop8" />
      <stop
         offset="0.74"
         stop-color="#a9a2c3"
         id="stop9" />
      <stop
         offset="0.78"
         stop-color="#bcb5d9"
         id="stop10" />
    </radialGradient>
    <linearGradient
       id="b"
       x1="38.31"
       y1="53.82"
       x2="165.6"
       y2="163.88"
       gradientUnits="userSpaceOnUse">
      <stop
         offset="0.05"
         stop-color="#448491"
         id="stop11" />
      <stop
         offset="0.15"
         stop-color="#4a7986"
         id="stop12" />
      <stop
         offset="0.33"
         stop-color="#506e7b"
         id="stop13" />
      <stop
         offset="0.52"
         stop-color="#526a77"
         id="stop14" />
      <stop
         offset="0.6"
         stop-color="#56707c"
         id="stop15" />
      <stop
         offset="0.7"
         stop-color="#607f8b"
         id="stop16" />
      <stop
         offset="0.82"
         stop-color="#7099a3"
         id="stop17" />
      <stop
         offset="0.94"
         stop-color="#87bdc4"
         id="stop18" />
      <stop
         offset="1"
         stop-color="#94d1d6"
         id="stop19" />
    </linearGradient>
    <radialGradient
       id="a-5"
       cx="103.55"
       cy="103.55"
       fx="14.832241"
       fy="15.612816"
       r="196.89"
       gradientUnits="userSpaceOnUse"
       gradientTransform="translate(117.03948,-39.542209)">
      <stop
         offset="0"
         stop-color="#746b7f"
         id="stop1-2" />
      <stop
         offset="0.12"
         stop-color="#615b6f"
         id="stop2-7" />
      <stop
         offset="0.26"
         stop-color="#514c60"
         id="stop3-6" />
      <stop
         offset="0.37"
         stop-color="#4b475b"
         id="stop4-1" />
      <stop
         offset="0.44"
         stop-color="#4f4b5f"
         id="stop5-4" />
      <stop
         offset="0.51"
         stop-color="#5a566c"
         id="stop6-2" />
      <stop
         offset="0.59"
         stop-color="#6d6881"
         id="stop7-3" />
      <stop
         offset="0.67"
         stop-color="#87829e"
         id="stop8-2" />
      <stop
         offset="0.74"
         stop-color="#a9a2c3"
         id="stop9-2" />
      <stop
         offset="0.78"
         stop-color="#bcb5d9"
         id="stop10-1" />
    </radialGradient>
  </defs>
  <title
     id="title19">Artboard 1</title>
  <g
     id="g22"
     transform="matrix(0.80468748,0,0,0.80468748,20.224609,20.224609)">
    <rect
       class="b"
       x="4.6601943e-07"
       y="4.6601943e-07"
       width="207.10001"
       height="207.10001"
       rx="47.084118"
       id="rect20-8"
       style="fill:#06283d;fill-opacity:1;stroke-width:1.07378" />
    <rect
       class="b"
       x="7.1199951"
       y="7.1199999"
       width="192.87"
       height="192.87"
       rx="40.057816"
       id="rect20"
       style="fill:url(#a)" />
    <g
       id="g32"
       transform="translate(-3.9714575)">
      <path
         class="a"
         d="m 120.57,188.71 c -2.53,0 -4.91,-0.11 -7.27,-0.32 a 45,45 0 0 1 -8.24,-1.29 44,44 0 0 1 -15,-7.67 58.55,58.55 0 0 1 -15.36,-17.67 c -1.56,-2.75 -3,-6.59 -6.82,-16.86 -0.84,-2.27 -1.47,-4 -2,-5.39 -1.24,-3.37 -1.65,-4.51 -2.66,-6.7 a 52.55,52.55 0 0 0 -4.83,-8.94 50.86,50.86 0 0 0 -8,-8.76 c -1.15,-1 -1.68,-1.47 -2.66,-2.23 -1.22,-1 -2.9,-2.3 -6.12,-5.12 -5.44,-4.78 -7.49,-7 -9.38,-9.42 A 41.73,41.73 0 0 1 25.51,86.75 38.55,38.55 0 0 1 23.09,75.14 38.33,38.33 0 0 1 24.18,64.85 73.62,73.62 0 0 1 30.7,46.2 a 50.89,50.89 0 0 1 8,-12.07 56,56 0 0 1 13.12,-10.44 46,46 0 0 1 7,-3.36 32.68,32.68 0 0 1 11.23,-1.93 38.6,38.6 0 0 1 10.14,1.38 31.55,31.55 0 0 1 16.87,10.62 c 4.56,5.64 6.4,12.73 7.89,22.34 0.38,2.5 0.53,3.79 0.66,4.92 0.08,0.78 0.17,1.56 0.37,2.94 1.21,8.24 1.81,12 3.19,14.87 2,4.2 5.82,6.65 8.33,8.27 6.16,4 12.52,4.54 16.73,4.91 1.66,0.15 3.55,0.23 5.61,0.23 3.08,0 5.64,-0.17 6.59,-0.24 1.89,-0.14 3.47,-0.32 5,-0.5 a 58.42,58.42 0 0 1 7,-0.52 32.59,32.59 0 0 1 8.68,1.17 30,30 0 0 1 15.83,9.47 c 4.21,5 5.34,9.93 6.76,16.2 a 75.38,75.38 0 0 1 1.81,12.74 c 0.24,4.87 0.57,11.52 -1.72,19.36 a 50.42,50.42 0 0 1 -11.11,19.38 63.6,63.6 0 0 1 -19,14.55 69.62,69.62 0 0 1 -12.75,4.77 89.69,89.69 0 0 1 -18.68,3.15 c -2.67,0.2 -5.25,0.3 -7.68,0.3 z"
         id="path20" />
      <path
         class="c"
         d="m 120.57,181.05 c -2.3,0 -4.46,-0.09 -6.59,-0.28 a 38.17,38.17 0 0 1 -7,-1.07 A 36.37,36.37 0 0 1 94.63,173.33 50.85,50.85 0 0 1 81.35,158 c -1.26,-2.23 -2.74,-6.19 -6.31,-15.77 -0.84,-2.24 -1.46,-3.94 -2,-5.34 -1.24,-3.39 -1.75,-4.8 -2.89,-7.27 a 60.17,60.17 0 0 0 -5.5,-10.11 58.08,58.08 0 0 0 -9.13,-10 c -1.35,-1.23 -2.07,-1.8 -3.07,-2.59 -1.23,-1 -2.75,-2.17 -5.82,-4.86 -5,-4.38 -6.8,-6.33 -8.4,-8.38 a 34.5,34.5 0 0 1 -5.58,-9.56 28.26,28.26 0 0 1 -1,-17.58 65.7,65.7 0 0 1 5.85,-16.8 43.55,43.55 0 0 1 6.85,-10.4 48,48 0 0 1 11.26,-9 39.2,39.2 0 0 1 5.83,-2.81 24.82,24.82 0 0 1 8.6,-1.47 31.53,31.53 0 0 1 8.15,1.12 23.78,23.78 0 0 1 12.91,8 c 3,3.77 4.75,8.84 6.28,18.7 0.36,2.34 0.49,3.49 0.61,4.6 0.09,0.85 0.19,1.7 0.41,3.2 1.24,8.41 1.92,13.05 3.87,17.09 3,6.13 8,9.41 11.07,11.36 7.74,5 15.54,5.7 20.2,6.12 1.88,0.17 4,0.25 6.29,0.25 3.34,0 6.12,-0.18 7.17,-0.26 2,-0.15 3.76,-0.35 5.29,-0.53 a 52.84,52.84 0 0 1 6.09,-0.47 24.65,24.65 0 0 1 6.67,0.91 c 2.56,0.69 7.88,2.14 12,7 3,3.57 3.86,7.31 5.15,13 a 67.86,67.86 0 0 1 1.63,11.42 c 0.22,4.56 0.5,10.23 -1.43,16.83 a 42.88,42.88 0 0 1 -9.54,16.52 55.64,55.64 0 0 1 -16.69,12.71 61.39,61.39 0 0 1 -11.42,4.26 83,83 0 0 1 -17.18,2.88 c -2.39,0.23 -4.74,0.28 -7,0.28 z"
         id="path21" />
      <path
         class="d"
         d="m 63.59,33.38 c 5.67,-2.08 11.32,-0.63 13,-0.19 a 17.64,17.64 0 0 1 9.68,6 c 2.23,2.75 3.62,7 5,15.73 0.63,4.06 0.51,4.24 1,7.75 1.29,8.76 2.06,14 4.43,18.9 3.73,7.7 10,11.77 13.29,13.88 9,5.84 18,6.64 23,7.09 a 98.18,98.18 0 0 0 14.47,0 c 7.67,-0.57 10.71,-1.72 15.95,-0.29 2.31,0.62 6.06,1.7 8.86,5 2,2.41 2.64,5 3.84,10.33 a 61,61 0 0 1 1.48,10.34 c 0.22,4.41 0.45,9.18 -1.18,14.77 a 36.6,36.6 0 0 1 -8.27,14.18 49,49 0 0 1 -14.77,11.22 54.6,54.6 0 0 1 -10.37,3.81 76.65,76.65 0 0 1 -15.95,2.66 74.82,74.82 0 0 1 -12.55,0 32.39,32.39 0 0 1 -5.91,-0.89 29.67,29.67 0 0 1 -10.19,-5.31 44.4,44.4 0 0 1 -11.66,-13.44 c -1,-1.8 -2.65,-6.17 -5.91,-14.92 -2.88,-7.73 -3.29,-9.23 -5,-13 a 64.61,64.61 0 0 0 -6.06,-11.08 63.58,63.58 0 0 0 -10,-11.08 c -3.21,-2.92 -3.41,-2.64 -9,-7.53 -4.88,-4.28 -6.37,-5.95 -7.61,-7.53 a 28.37,28.37 0 0 1 -4.65,-7.9 24.49,24.49 0 0 1 -1.51,-7.3 24.69,24.69 0 0 1 0.78,-6.76 59.27,59.27 0 0 1 5.31,-15.28 37.69,37.69 0 0 1 5.91,-9 41.72,41.72 0 0 1 5,-4.58 40.6,40.6 0 0 1 4.73,-3.17 34.93,34.93 0 0 1 4.86,-2.41 z"
         id="path22"
         style="fill:url(#b)" />
    </g>
  </g>
</svg>
