<?xml version="1.0" encoding="UTF-8" standalone="no"?>
<svg
   width="824"
   height="1055.541"
   viewBox="0 0 824 1055.541"
   version="1.1"
   id="svg22"
   sodipodi:docname="logo-text.svg"
   inkscape:export-filename="logo-text-dark.png"
   inkscape:export-xdpi="96"
   inkscape:export-ydpi="96"
   inkscape:version="1.4.2 (ebf0e940d0, 2025-05-08)"
   xmlns:inkscape="http://www.inkscape.org/namespaces/inkscape"
   xmlns:sodipodi="http://sodipodi.sourceforge.net/DTD/sodipodi-0.dtd"
   xmlns="http://www.w3.org/2000/svg"
   xmlns:svg="http://www.w3.org/2000/svg"
   xmlns:rdf="http://www.w3.org/1999/02/22-rdf-syntax-ns#"
   xmlns:cc="http://creativecommons.org/ns#"
   xmlns:dc="http://purl.org/dc/elements/1.1/">
  <sodipodi:namedview
     id="namedview22"
     pagecolor="#505050"
     bordercolor="#eeeeee"
     borderopacity="1"
     inkscape:showpageshadow="0"
     inkscape:pageopacity="0"
     inkscape:pagecheckerboard="0"
     inkscape:deskcolor="#505050"
     showgrid="false"
     showguides="true"
     inkscape:zoom="0.19964719"
     inkscape:cx="593.54705"
     inkscape:cy="2021.0653"
     inkscape:window-width="990"
     inkscape:window-height="1568"
     inkscape:window-x="0"
     inkscape:window-y="0"
     inkscape:window-maximized="0"
     inkscape:current-layer="svg22">
    <inkscape:grid
       id="grid22"
       units="px"
       originx="8.1747476e-06"
       originy="0"
       spacingx="0.51775001"
       spacingy="0.51775"
       empcolor="#0099e5"
       empopacity="0.30196078"
       color="#0099e5"
       opacity="0.14902"
       empspacing="5"
       enabled="true"
       visible="false" />
  </sodipodi:namedview>
  <defs
     id="defs19">
    <style
       id="style1">
      .a {
        fill: #26283d;
      }

      .b {
        fill: url(#a);
      }

      .c {
        fill: #a59678;
      }

      .d {
        fill: url(#b);
      }
    </style>
    <radialGradient
       id="a"
       cx="103.55"
       cy="103.55"
       fx="14.832241"
       fy="15.612816"
       r="196.89"
       gradientUnits="userSpaceOnUse"
       gradientTransform="translate(-0.00499744)">
      <stop
         offset="0"
         stop-color="#746b7f"
         id="stop1" />
      <stop
         offset="0.12"
         stop-color="#615b6f"
         id="stop2" />
      <stop
         offset="0.26"
         stop-color="#514c60"
         id="stop3" />
      <stop
         offset="0.37"
         stop-color="#4b475b"
         id="stop4" />
      <stop
         offset="0.44"
         stop-color="#4f4b5f"
         id="stop5" />
      <stop
         offset="0.51"
         stop-color="#5a566c"
         id="stop6" />
      <stop
         offset="0.59"
         stop-color="#6d6881"
         id="stop7" />
      <stop
         offset="0.67"
         stop-color="#87829e"
         id="stop8" />
      <stop
         offset="0.74"
         stop-color="#a9a2c3"
         id="stop9" />
      <stop
         offset="0.78"
         stop-color="#bcb5d9"
         id="stop10" />
    </radialGradient>
    <linearGradient
       id="b"
       x1="38.310001"
       y1="53.82"
       x2="165.60001"
       y2="163.88"
       gradientUnits="userSpaceOnUse">
      <stop
         offset="0.05"
         stop-color="#448491"
         id="stop11" />
      <stop
         offset="0.15"
         stop-color="#4a7986"
         id="stop12" />
      <stop
         offset="0.33"
         stop-color="#506e7b"
         id="stop13" />
      <stop
         offset="0.52"
         stop-color="#526a77"
         id="stop14" />
      <stop
         offset="0.6"
         stop-color="#56707c"
         id="stop15" />
      <stop
         offset="0.7"
         stop-color="#607f8b"
         id="stop16" />
      <stop
         offset="0.82"
         stop-color="#7099a3"
         id="stop17" />
      <stop
         offset="0.94"
         stop-color="#87bdc4"
         id="stop18" />
      <stop
         offset="1"
         stop-color="#94d1d6"
         id="stop19" />
    </linearGradient>
    <radialGradient
       id="a-6"
       cx="103.55"
       cy="103.55"
       fx="14.832241"
       fy="15.612816"
       r="196.89"
       gradientUnits="userSpaceOnUse"
       gradientTransform="translate(-3.2384032e-6)">
      <stop
         offset="0"
         stop-color="#746b7f"
         id="stop1-7" />
      <stop
         offset="0.12"
         stop-color="#615b6f"
         id="stop2-5" />
      <stop
         offset="0.26"
         stop-color="#514c60"
         id="stop3-3" />
      <stop
         offset="0.37"
         stop-color="#4b475b"
         id="stop4-5" />
      <stop
         offset="0.44"
         stop-color="#4f4b5f"
         id="stop5-6" />
      <stop
         offset="0.51"
         stop-color="#5a566c"
         id="stop6-2" />
      <stop
         offset="0.59"
         stop-color="#6d6881"
         id="stop7-9" />
      <stop
         offset="0.67"
         stop-color="#87829e"
         id="stop8-1" />
      <stop
         offset="0.74"
         stop-color="#a9a2c3"
         id="stop9-2" />
      <stop
         offset="0.78"
         stop-color="#bcb5d9"
         id="stop10-7" />
    </radialGradient>
    <radialGradient
       id="a-3"
       cx="103.55"
       cy="103.55"
       fx="14.832241"
       fy="15.612816"
       r="196.89"
       gradientUnits="userSpaceOnUse"
       gradientTransform="translate(-1.7194046e-5)">
      <stop
         offset="0"
         stop-color="#746b7f"
         id="stop1-6"
         style="stop-color:#7b758d;stop-opacity:1;" />
      <stop
         offset="0.2915017"
         stop-color="#4b475b"
         id="stop4-7"
         style="stop-color:#4c425d;stop-opacity:1;" />
      <stop
         offset="0.63472694"
         stop-color="#4b475b"
         id="stop13-5"
         style="stop-color:#75678f;stop-opacity:1;" />
      <stop
         offset="0.85167235"
         stop-color="#bcb5d9"
         id="stop10-3"
         style="stop-color:#aba0c4;stop-opacity:1;" />
    </radialGradient>
    <linearGradient
       id="b-5"
       x1="57.369335"
       y1="37.498016"
       x2="146.54068"
       y2="180.202"
       gradientUnits="userSpaceOnUse">
      <stop
         offset="0"
         stop-color="#448491"
         id="stop11-6"
         style="stop-color:#6fa1b7;stop-opacity:1;" />
      <stop
         offset="0.32887372"
         stop-color="#526a77"
         id="stop14-2"
         style="stop-color:#4e788a;stop-opacity:1;" />
      <stop
         offset="0.51335096"
         stop-color="#526a77"
         id="stop2-9"
         style="stop-color:#426c7f;stop-opacity:1;" />
      <stop
         offset="0.69782823"
         stop-color="#526a77"
         id="stop12-1"
         style="stop-color:#527d90;stop-opacity:1;" />
      <stop
         offset="1"
         stop-color="#94d1d6"
         id="stop19-2"
         style="stop-color:#7ca9be;stop-opacity:1;" />
    </linearGradient>
  </defs>
  <title
     id="title19">Artboard 1</title>
  <path
     style="font-size:67.4159px;font-family:Alata;-inkscape-font-specification:'Alata, Normal';fill:#1f0b26;fill-opacity:1;stroke-width:1.95685;stroke-linecap:round;stroke-linejoin:round"
     d="M 28.965541,990.36034 V 867.24215 h 28.43252 l 0.26824,22.53141 q 4.82817,-10.99748 15.55742,-18.23972 10.99748,-7.51046 26.28667,-7.51046 19.849109,0 29.773669,8.31516 9.92456,8.04695 13.14333,23.0679 3.48701,15.0209 3.48701,35.6747 v 59.2792 h -28.96898 v -58.4745 q 0,-21.4585 -4.29171,-32.72417 -4.02346,-11.26573 -19.044409,-11.26573 -7.77871,0 -16.09388,4.82818 -8.31517,4.82814 -13.94803,13.94802 -5.63286,9.1198 -5.63286,22.5314 v 61.1568 z m 206.001769,2.6823 q -16.36211,0 -30.57836,-7.7787 -13.94803,-7.7787 -22.53143,-22.2632 -8.58341,-14.4845 -8.58341,-34.6019 0,-19.3126 7.24225,-33.7971 7.51048,-14.4845 20.92204,-22.53145 13.6798,-8.04691 32.45599,-8.04691 11.26572,0 20.38558,4.02344 9.3881,3.75526 15.55741,9.3881 6.43756,5.36464 8.58341,10.46102 l 0.53646,-20.65379 h 27.62782 v 123.11819 h -27.35959 l -0.53646,-21.7268 q -2.68232,5.9011 -9.11986,11.534 -6.16933,5.6328 -15.02096,9.3881 -8.85163,3.487 -19.58089,3.487 z m 4.82817,-24.1409 q 9.92456,0 17.9715,-4.5599 8.31517,-4.8281 13.14333,-13.4115 5.09639,-8.5834 5.09639,-20.3856 v -1.8776 q 0,-12.0705 -5.09639,-20.9221 -4.82816,-9.11983 -13.14333,-13.94801 -8.04694,-5.09638 -17.9715,-5.09638 -17.9715,0 -27.09136,11.53389 -8.85164,11.534 -8.85164,28.4326 0,17.1668 8.85164,28.7007 9.11986,11.5339 27.09136,11.5339 z m 101.12339,86.63876 V 867.24215 h 27.89605 v 22.79966 q 6.16933,-10.99748 17.16681,-18.50797 11.26571,-7.51046 28.96898,-7.51046 16.63035,0 29.77369,6.974 13.14334,6.974 20.65379,21.19029 7.77871,14.21627 7.77871,35.94297 0,19.8491 -8.04695,34.6018 -8.04692,14.4845 -21.4585,22.5315 -13.41155,7.7787 -30.0419,7.7787 -15.82565,0 -27.09136,-5.6329 -11.26571,-5.6328 -17.70327,-15.5574 v 83.68816 z m 65.98488,-86.90696 q 18.23977,0 27.09138,-11.5339 9.11986,-11.534 9.11986,-28.1643 0,-17.435 -9.11986,-28.7008 -8.85161,-11.26568 -27.09138,-11.26568 -9.65631,0 -17.97148,4.55993 -8.31517,4.55997 -13.41156,13.14335 -5.0964,8.5834 -5.0964,20.6538 v 1.8776 q 0,11.8022 5.0964,20.9221 5.09639,8.8516 13.41156,13.6798 8.31517,4.8281 17.97148,4.8281 z m 151.55087,24.4091 q -16.3621,0 -30.57835,-7.7787 -13.94804,-7.7787 -22.53145,-22.2632 -8.58341,-14.4845 -8.58341,-34.6019 0,-19.3126 7.24225,-33.7971 7.5105,-14.4845 20.92204,-22.53145 13.6798,-8.04691 32.45601,-8.04691 11.26569,0 20.38555,4.02344 9.38811,3.75526 15.55745,9.3881 6.43754,5.36464 8.5834,10.46102 l 0.53646,-20.65379 h 27.62783 v 123.11819 h -27.35962 l -0.53646,-21.7268 q -2.68232,5.9011 -9.11986,11.534 -6.1693,5.6328 -15.02095,9.3881 -8.85162,3.487 -19.58089,3.487 z m 4.82818,-24.1409 q 9.92453,0 17.97148,-4.5599 8.31516,-4.8281 13.14334,-13.4115 5.09638,-8.5834 5.09638,-20.3856 v -1.8776 q 0,-12.0705 -5.09638,-20.9221 -4.82818,-9.11983 -13.14334,-13.94801 -8.04695,-5.09638 -17.97148,-5.09638 -17.97151,0 -27.09137,11.53389 -8.85166,11.534 -8.85166,28.4326 0,17.1668 8.85166,28.7007 9.11986,11.5339 27.09137,11.5339 z m 101.12315,21.4586 V 867.24215 h 28.96899 v 24.14081 q 4.29168,-12.07042 13.67979,-19.58088 9.65632,-7.7787 22.2632,-7.7787 8.58341,0 11.80218,1.60937 l -4.02348,29.2372 q -2.4141,-1.60937 -10.46102,-1.60937 -6.70579,0 -14.48449,2.95052 -7.77871,2.95057 -13.41159,10.46104 -5.36459,7.2422 -5.36459,20.3856 v 63.3026 z m 96.29492,0 V 867.24215 h 30.04191 v 123.11819 z m 15.02095,-146.18609 q -8.31515,0 -13.948,-5.63284 -5.36463,-5.63288 -5.36463,-13.94804 0,-7.5105 5.36463,-12.87513 5.63285,-5.3646 13.948,-5.3646 8.3152,0 13.6798,5.3646 5.63288,5.36463 5.63288,12.87513 0,8.31516 -5.63288,13.94804 -5.3646,5.63284 -13.6798,5.63284 z"
     id="text1"
     aria-label="napari&#10;"
     inkscape:label="napari" />
  <g
     id="g22"
     transform="matrix(3.9787543,0,0,3.9787543,6.0678734e-5,0)"
     style="stroke-width:0.251335"
     inkscape:label="logo">
    <rect
       class="b"
       x="-1.5250686e-05"
       y="0"
       width="207.10001"
       height="207.10001"
       rx="47.084118"
       id="rect20-8"
       style="fill:#1f0b26;fill-opacity:1;stroke-width:0.55595"
       inkscape:label="outer-border" />
    <rect
       class="b"
       x="7.1199799"
       y="7.1200027"
       width="192.87"
       height="192.87"
       rx="40.057816"
       id="rect20"
       style="fill:url(#a-3);stroke-width:0.251335" />
    <g
       id="g32"
       transform="translate(-3.9714772)"
       style="stroke-width:0.251335">
      <path
         class="a"
         d="M 113.3,188.39 C 105.13385,187.87904 97.294474,185.1065 90.06,179.43 83.80257,174.6342 78.578135,168.62405 74.7,161.76 69.863938,153.23489 65.883447,135.00919 58.39,123.87 53.956723,117.3475 47.466618,112.85815 41.61,107.76 36.341276,103.1305 29.408316,96.975635 25.51,86.75 20.070899,72.2968 25.364629,56.679938 30.7,46.2 39.581235,27.459928 60.011612,14.23427 80.19,19.78 c 6.623293,1.623772 12.542186,5.349832 16.87,10.62 4.56,5.64 6.4,12.73 7.89,22.34 1.32868,7.54009 1.10229,15.641087 4.22,22.73 2,4.2 5.82,6.65 8.33,8.27 6.54627,4.250824 16.16294,5.84073 28.93,4.9 6.94113,-0.804841 13.81247,-1.642201 20.68,0.15 14.33648,3.77191 19.47697,12.03733 22.59,25.67 1.07249,4.65199 3.85034,19.22617 0.09,32.1 -5.90028,19.26799 -22.00527,29.87139 -30.11,33.93 -19.6434,9.63269 -41.6221,8.32337 -46.38,7.9 z"
         id="path20"
         sodipodi:nodetypes="cccccccccccccccccc"
         style="fill:#1f0b26;fill-opacity:1;stroke-width:0.251335" />
      <path
         class="c"
         d="m 113.98,180.77 c -7.12428,-0.28365 -13.71826,-3.16624 -19.35,-7.44 C 89.218811,169.16362 84.702318,163.94993 81.35,158 77.00092,150.30282 72.870645,131.68156 64.65,119.51 59.921381,112.42283 52.945893,107.56088 46.63,102.06 41.685598,97.728704 35.902904,92.576553 32.65,84.12 27.86575,71.91698 33.609421,57.382401 37.5,49.74 44.553113,34.718011 61.080095,22.4926 78.19,27.18 c 5.062108,1.183811 9.596819,3.993857 12.91,8 3,3.77 4.75,8.84 6.28,18.7 1.331988,8.324452 1.421328,17.094797 4.89,24.89 3,6.13 8,9.41 11.07,11.36 8.07351,5.215444 19.26316,7.206902 33.66,6.11 6.04785,-0.592962 12.0619,-1.675638 18.05,-0.09 11.68618,3.111388 14.65895,9.08614 17.15,20 0.8124,3.51921 3.50329,16.95377 0.2,28.25 -5.41353,17.53914 -20.81279,26.53804 -26.23,29.23 -18.03023,8.85411 -38.83148,7.43959 -42.19,7.14 z"
         id="path21"
         sodipodi:nodetypes="cccccccccccccccccc"
         style="fill:#ccb98f;fill-opacity:1;stroke-width:0.251335" />
      <path
         class="d"
         d="m 76.59,33.19 c 3.801295,0.874747 7.205455,2.984764 9.68,6 2.23,2.75 3.62,7 5,15.73 1.365707,8.951448 1.677839,18.281765 5.43,26.65 3.73,7.7 10,11.77 13.29,13.88 11.16328,7.07332 24.61619,7.94449 37.47,7.09 7.67,-0.57 10.71,-1.72 15.95,-0.29 9.00827,2.21144 10.82611,7.08038 12.7,15.33 0.58265,2.51228 3.22398,15.08236 0.3,25.11 -4.56584,14.66608 -17.54654,22.68354 -23.04,25.4 -12.0038,5.8495 -27.72656,7.40788 -38.87,6.47 -5.94118,-0.21452 -11.42634,-2.60467 -16.1,-6.2 -4.75371,-3.64735 -8.720006,-8.21914 -11.66,-13.44 -4.114044,-7.40528 -8.225961,-26.17413 -16.97,-39 -4.949583,-7.55249 -12.288686,-12.79472 -19,-18.61 C 45.903355,93.041713 41.188954,88.792507 38.51,81.88 34.712681,71.691613 39.674334,59.241814 43.09,52.54 43.628514,51.389328 54.690056,28.397244 76.59,33.19 Z"
         id="path22"
         style="fill:url(#b-5);stroke-width:0.251335"
         sodipodi:nodetypes="cccccccccccccccccc" />
    </g>
  </g>
  <metadata
     id="metadata22">
    <rdf:RDF>
      <cc:Work
         rdf:about="">
        <dc:title>Artboard 1</dc:title>
      </cc:Work>
    </rdf:RDF>
  </metadata>
</svg>
