<?xml version="1.0" encoding="UTF-8" standalone="no"?>
<svg
   width="399.99997"
   height="512.39832"
   viewBox="0 0 207.09998 265.29423"
   version="1.1"
   id="svg22"
   sodipodi:docname="naparilogo.svg"
   inkscape:export-filename="../tmp/naparilogo.png"
   inkscape:export-xdpi="96"
   inkscape:export-ydpi="96"
   inkscape:version="1.4.2 (ebf0e940d0, 2025-05-08)"
   xmlns:inkscape="http://www.inkscape.org/namespaces/inkscape"
   xmlns:sodipodi="http://sodipodi.sourceforge.net/DTD/sodipodi-0.dtd"
   xmlns:xlink="http://www.w3.org/1999/xlink"
   xmlns="http://www.w3.org/2000/svg"
   xmlns:svg="http://www.w3.org/2000/svg"
   xmlns:rdf="http://www.w3.org/1999/02/22-rdf-syntax-ns#"
   xmlns:cc="http://creativecommons.org/ns#"
   xmlns:dc="http://purl.org/dc/elements/1.1/">
  <sodipodi:namedview
     id="namedview22"
     pagecolor="#505050"
     bordercolor="#eeeeee"
     borderopacity="1"
     inkscape:showpageshadow="0"
     inkscape:pageopacity="0"
     inkscape:pagecheckerboard="0"
     inkscape:deskcolor="#505050"
     showgrid="false"
     showguides="true"
     inkscape:zoom="1.6267859"
     inkscape:cx="190.5598"
     inkscape:cy="356.8386"
     inkscape:window-width="1706"
     inkscape:window-height="1568"
     inkscape:window-x="0"
     inkscape:window-y="0"
     inkscape:window-maximized="0"
     inkscape:current-layer="g22">
    <inkscape:grid
       id="grid22"
       units="px"
       originx="9.2735112e-06"
       originy="0"
       spacingx="0.51775001"
       spacingy="0.51775"
       empcolor="#0099e5"
       empopacity="0.30196078"
       color="#0099e5"
       opacity="0.14902"
       empspacing="5"
       enabled="true"
       visible="false" />
  </sodipodi:namedview>
  <defs
     id="defs19">
    <style
       id="style1">
      .a {
        fill: #26283d;
      }

      .b {
        fill: url(#a);
      }

      .c {
        fill: #a59678;
      }

      .d {
        fill: url(#b);
      }
    </style>
    <radialGradient
       id="a"
       cx="103.55"
       cy="103.55"
       fx="14.832241"
       fy="15.612816"
       r="196.89"
       gradientUnits="userSpaceOnUse"
       gradientTransform="translate(-0.00499744)">
      <stop
         offset="0"
         stop-color="#746b7f"
         id="stop1" />
      <stop
         offset="0.12"
         stop-color="#615b6f"
         id="stop2" />
      <stop
         offset="0.26"
         stop-color="#514c60"
         id="stop3" />
      <stop
         offset="0.37"
         stop-color="#4b475b"
         id="stop4" />
      <stop
         offset="0.44"
         stop-color="#4f4b5f"
         id="stop5" />
      <stop
         offset="0.51"
         stop-color="#5a566c"
         id="stop6" />
      <stop
         offset="0.59"
         stop-color="#6d6881"
         id="stop7" />
      <stop
         offset="0.67"
         stop-color="#87829e"
         id="stop8" />
      <stop
         offset="0.74"
         stop-color="#a9a2c3"
         id="stop9" />
      <stop
         offset="0.78"
         stop-color="#bcb5d9"
         id="stop10" />
    </radialGradient>
    <linearGradient
       id="b"
       x1="38.310001"
       y1="53.82"
       x2="165.60001"
       y2="163.88"
       gradientUnits="userSpaceOnUse">
      <stop
         offset="0.05"
         stop-color="#448491"
         id="stop11" />
      <stop
         offset="0.15"
         stop-color="#4a7986"
         id="stop12" />
      <stop
         offset="0.33"
         stop-color="#506e7b"
         id="stop13" />
      <stop
         offset="0.52"
         stop-color="#526a77"
         id="stop14" />
      <stop
         offset="0.6"
         stop-color="#56707c"
         id="stop15" />
      <stop
         offset="0.7"
         stop-color="#607f8b"
         id="stop16" />
      <stop
         offset="0.82"
         stop-color="#7099a3"
         id="stop17" />
      <stop
         offset="0.94"
         stop-color="#87bdc4"
         id="stop18" />
      <stop
         offset="1"
         stop-color="#94d1d6"
         id="stop19" />
    </linearGradient>
    <radialGradient
       id="a-6"
       cx="103.55"
       cy="103.55"
       fx="14.832241"
       fy="15.612816"
       r="196.89"
       gradientUnits="userSpaceOnUse"
       gradientTransform="translate(-3.2384032e-6)">
      <stop
         offset="0"
         stop-color="#746b7f"
         id="stop1-7" />
      <stop
         offset="0.12"
         stop-color="#615b6f"
         id="stop2-5" />
      <stop
         offset="0.26"
         stop-color="#514c60"
         id="stop3-3" />
      <stop
         offset="0.37"
         stop-color="#4b475b"
         id="stop4-5" />
      <stop
         offset="0.44"
         stop-color="#4f4b5f"
         id="stop5-6" />
      <stop
         offset="0.51"
         stop-color="#5a566c"
         id="stop6-2" />
      <stop
         offset="0.59"
         stop-color="#6d6881"
         id="stop7-9" />
      <stop
         offset="0.67"
         stop-color="#87829e"
         id="stop8-1" />
      <stop
         offset="0.74"
         stop-color="#a9a2c3"
         id="stop9-2" />
      <stop
         offset="0.78"
         stop-color="#bcb5d9"
         id="stop10-7" />
    </radialGradient>
    <linearGradient
       inkscape:collect="always"
       xlink:href="#b"
       id="linearGradient1"
       gradientUnits="userSpaceOnUse"
       x1="38.310001"
       y1="53.82"
       x2="165.60001"
       y2="163.88"
       gradientTransform="translate(-3.9714504)" />
  </defs>
  <title
     id="title19">Artboard 1</title>
  <g
     id="g22">
    <rect
       class="b"
       x="5.333801e-07"
       y="0"
       width="207.09999"
       height="207.09999"
       rx="47.084114"
       id="rect20-8"
       style="fill:#06283d;fill-opacity:1;stroke-width:2.212" />
    <rect
       class="b"
       x="7.1199837"
       y="7.1200032"
       width="192.86998"
       height="192.86998"
       rx="40.057812"
       id="rect20-7"
       style="fill:url(#a-6);stroke-width:2.06" />
    <path
       class="a"
       d="m 109.32854,188.38998 c -8.16616,-0.51097 -16.005532,-3.2835 -23.240003,-8.96 -6.257433,-4.79581 -11.481858,-10.80594 -15.36,-17.67001 -4.836068,-8.5251 -8.816551,-26.7508 -16.31,-37.88999 C 49.98526,117.34748 43.495161,112.85813 37.638539,107.75999 32.36981,103.13048 25.436856,96.975622 21.538536,86.749985 16.099438,72.296787 21.393171,56.679928 26.728541,46.199994 35.609779,27.459918 56.040143,14.234262 76.218543,19.77999 c 6.62329,1.623777 12.542184,5.349833 16.869994,10.620001 4.560006,5.64 6.399998,12.729996 7.889993,22.340005 1.32868,7.540082 1.10229,15.641078 4.22001,22.729989 2,4.200008 5.82,6.650006 8.33,8.270003 6.54626,4.250826 16.16293,5.840733 28.93,4.899996 6.94113,-0.80484 13.81246,-1.642202 20.67999,0.150007 14.33649,3.771905 19.47697,12.037319 22.59,25.669999 1.07249,4.65199 3.85034,19.22616 0.09,32.09999 -5.90027,19.26799 -22.00527,29.87139 -30.11,33.93 -19.6434,9.63268 -41.6221,8.32337 -46.37998,7.9 z"
       id="path20-9"
       sodipodi:nodetypes="cccccccccccccccccc"
       style="fill:#06283d;stroke-width:2.06" />
    <path
       class="c"
       d="m 110.00854,180.76997 c -7.12429,-0.28364 -13.718258,-3.16623 -19.350007,-7.43999 -5.411177,-4.16639 -9.927676,-9.38007 -13.27999,-15.33 -4.349086,-7.69718 -8.479354,-26.31844 -16.70001,-38.49 -4.728609,-7.08716 -11.704102,-11.94912 -18.019989,-17.45 C 37.714138,97.72869 31.931441,92.576542 28.678538,84.119981 23.894287,71.916964 29.637962,57.382387 33.528541,49.739991 40.581647,34.718006 57.108629,22.492588 74.218539,27.17999 c 5.062113,1.183813 9.596828,3.993862 12.910002,8.000002 2.999993,3.769995 4.750003,8.839993 6.280004,18.699996 1.331976,8.324456 1.421318,17.094801 4.889992,24.890003 3.000003,6.129997 8.000003,9.409995 11.069993,11.359992 8.07352,5.215441 19.26316,7.206905 33.66,6.110003 6.04786,-0.592966 12.0619,-1.675641 18.05,-0.08997 11.68618,3.111383 14.65895,9.086124 17.15,19.999994 0.8124,3.51921 3.50329,16.95377 0.2,28.25 -5.41353,17.53913 -20.81279,26.53804 -26.23,29.23 -18.03023,8.8541 -38.83147,7.43958 -42.18999,7.13999 z"
       id="path21-2"
       sodipodi:nodetypes="cccccccccccccccccc"
       style="fill:#a59678;stroke-width:2.06" />
    <path
       class="d"
       d="m 72.618536,33.189992 c 3.801302,0.87475 7.205467,2.984758 9.680011,5.999999 2.229989,2.749998 3.619988,6.999999 4.999996,15.730001 1.365701,8.951449 1.677837,18.281766 5.429996,26.649991 3.730005,7.700001 10.000001,11.769997 13.289991,13.880005 11.16329,7.073322 24.61619,7.944492 37.47,7.089992 7.67,-0.57 10.71001,-1.71999 15.95001,-0.28999 9.00826,2.21143 10.8261,7.08037 12.69999,15.33 0.58265,2.51227 3.22398,15.08235 0.3,25.11 -4.56583,14.66606 -17.54654,22.68354 -23.04,25.39999 -12.0038,5.8495 -27.72656,7.40787 -38.87,6.46999 -5.94118,-0.21452 -11.42633,-2.60466 -16.099988,-6.2 -4.753716,-3.64734 -8.720011,-8.21913 -11.660006,-13.43999 -4.11404,-7.40528 -8.22596,-26.17413 -16.969999,-38.99999 C 60.848953,108.3675 53.509852,103.12526 46.798541,97.309989 41.931891,93.041693 37.217498,88.792489 34.538534,81.879988 30.74122,71.691607 35.702875,59.2418 39.118534,52.539996 39.657047,51.38932 50.718595,28.397241 72.618536,33.189992 Z"
       id="path22-0"
       style="fill:url(#linearGradient1);stroke-width:2.06"
       sodipodi:nodetypes="cccccccccccccccccc" />
    <text
       xml:space="preserve"
       style="font-size:67.4159px;font-family:Calibri;-inkscape-font-specification:'Calibri, Normal';text-align:start;writing-mode:lr-tb;direction:ltr;text-anchor:start;fill:#06283d;fill-opacity:1;stroke-width:1.95685;stroke-linecap:round;stroke-linejoin:round"
       x="2.3285282"
       y="248.91216"
       id="text1"><tspan
         id="tspan1"
         style="font-style:normal;font-variant:normal;font-weight:normal;font-stretch:normal;font-size:67.4159px;font-family:Alata;-inkscape-font-specification:'Alata, Normal';font-variant-ligatures:normal;font-variant-caps:normal;font-variant-numeric:normal;font-variant-east-asian:normal;fill:#06283d;fill-opacity:1;stroke-width:1.95685"
         x="2.3285282"
         y="248.91216"
         sodipodi:role="line">napari</tspan><tspan
         style="fill:#06283d;fill-opacity:1;stroke-width:1.95685"
         x="2.3285282"
         y="333.18204"
         id="tspan2"
         sodipodi:role="line" /></text>
  </g>
  <metadata
     id="metadata22">
    <rdf:RDF>
      <cc:Work
         rdf:about="">
        <dc:title>Artboard 1</dc:title>
      </cc:Work>
    </rdf:RDF>
  </metadata>
</svg>
