<?xml version="1.0" encoding="UTF-8" standalone="no"?>
<svg
   width="824"
   height="1055.5405"
   viewBox="0 0 426.626 546.50611"
   version="1.1"
   id="svg22"
   sodipodi:docname="logo-text.svg"
   inkscape:export-filename="logo-text-dark.png"
   inkscape:export-xdpi="96"
   inkscape:export-ydpi="96"
   inkscape:version="1.4.2 (ebf0e940d0, 2025-05-08)"
   xmlns:inkscape="http://www.inkscape.org/namespaces/inkscape"
   xmlns:sodipodi="http://sodipodi.sourceforge.net/DTD/sodipodi-0.dtd"
   xmlns="http://www.w3.org/2000/svg"
   xmlns:svg="http://www.w3.org/2000/svg"
   xmlns:rdf="http://www.w3.org/1999/02/22-rdf-syntax-ns#"
   xmlns:cc="http://creativecommons.org/ns#"
   xmlns:dc="http://purl.org/dc/elements/1.1/">
  <sodipodi:namedview
     id="namedview22"
     pagecolor="#505050"
     bordercolor="#eeeeee"
     borderopacity="1"
     inkscape:showpageshadow="0"
     inkscape:pageopacity="0"
     inkscape:pagecheckerboard="0"
     inkscape:deskcolor="#505050"
     showgrid="false"
     showguides="true"
     inkscape:zoom="0.39929438"
     inkscape:cx="503.388"
     inkscape:cy="1080.6563"
     inkscape:window-width="1073"
     inkscape:window-height="1568"
     inkscape:window-x="0"
     inkscape:window-y="0"
     inkscape:window-maximized="0"
     inkscape:current-layer="svg22">
    <inkscape:grid
       id="grid22"
       units="px"
       originx="8.1747478e-06"
       originy="0"
       spacingx="0.51775001"
       spacingy="0.51775"
       empcolor="#0099e5"
       empopacity="0.30196078"
       color="#0099e5"
       opacity="0.14902"
       empspacing="5"
       enabled="true"
       visible="false" />
  </sodipodi:namedview>
  <defs
     id="defs19">
    <style
       id="style1">
      .a {
        fill: #26283d;
      }

      .b {
        fill: url(#a);
      }

      .c {
        fill: #a59678;
      }

      .d {
        fill: url(#b);
      }
    </style>
    <radialGradient
       id="a"
       cx="103.55"
       cy="103.55"
       fx="14.832241"
       fy="15.612816"
       r="196.89"
       gradientUnits="userSpaceOnUse"
       gradientTransform="translate(-0.00499744)">
      <stop
         offset="0"
         stop-color="#746b7f"
         id="stop1" />
      <stop
         offset="0.12"
         stop-color="#615b6f"
         id="stop2" />
      <stop
         offset="0.26"
         stop-color="#514c60"
         id="stop3" />
      <stop
         offset="0.37"
         stop-color="#4b475b"
         id="stop4" />
      <stop
         offset="0.44"
         stop-color="#4f4b5f"
         id="stop5" />
      <stop
         offset="0.51"
         stop-color="#5a566c"
         id="stop6" />
      <stop
         offset="0.59"
         stop-color="#6d6881"
         id="stop7" />
      <stop
         offset="0.67"
         stop-color="#87829e"
         id="stop8" />
      <stop
         offset="0.74"
         stop-color="#a9a2c3"
         id="stop9" />
      <stop
         offset="0.78"
         stop-color="#bcb5d9"
         id="stop10" />
    </radialGradient>
    <linearGradient
       id="b"
       x1="38.310001"
       y1="53.82"
       x2="165.60001"
       y2="163.88"
       gradientUnits="userSpaceOnUse">
      <stop
         offset="0.05"
         stop-color="#448491"
         id="stop11" />
      <stop
         offset="0.15"
         stop-color="#4a7986"
         id="stop12" />
      <stop
         offset="0.33"
         stop-color="#506e7b"
         id="stop13" />
      <stop
         offset="0.52"
         stop-color="#526a77"
         id="stop14" />
      <stop
         offset="0.6"
         stop-color="#56707c"
         id="stop15" />
      <stop
         offset="0.7"
         stop-color="#607f8b"
         id="stop16" />
      <stop
         offset="0.82"
         stop-color="#7099a3"
         id="stop17" />
      <stop
         offset="0.94"
         stop-color="#87bdc4"
         id="stop18" />
      <stop
         offset="1"
         stop-color="#94d1d6"
         id="stop19" />
    </linearGradient>
    <radialGradient
       id="a-6"
       cx="103.55"
       cy="103.55"
       fx="14.832241"
       fy="15.612816"
       r="196.89"
       gradientUnits="userSpaceOnUse"
       gradientTransform="translate(-3.2384032e-6)">
      <stop
         offset="0"
         stop-color="#746b7f"
         id="stop1-7" />
      <stop
         offset="0.12"
         stop-color="#615b6f"
         id="stop2-5" />
      <stop
         offset="0.26"
         stop-color="#514c60"
         id="stop3-3" />
      <stop
         offset="0.37"
         stop-color="#4b475b"
         id="stop4-5" />
      <stop
         offset="0.44"
         stop-color="#4f4b5f"
         id="stop5-6" />
      <stop
         offset="0.51"
         stop-color="#5a566c"
         id="stop6-2" />
      <stop
         offset="0.59"
         stop-color="#6d6881"
         id="stop7-9" />
      <stop
         offset="0.67"
         stop-color="#87829e"
         id="stop8-1" />
      <stop
         offset="0.74"
         stop-color="#a9a2c3"
         id="stop9-2" />
      <stop
         offset="0.78"
         stop-color="#bcb5d9"
         id="stop10-7" />
    </radialGradient>
    <radialGradient
       id="a-3"
       cx="103.55"
       cy="103.55"
       fx="14.832241"
       fy="15.612816"
       r="196.89"
       gradientUnits="userSpaceOnUse"
       gradientTransform="translate(-1.7194046e-5)">
      <stop
         offset="0"
         stop-color="#746b7f"
         id="stop1-6"
         style="stop-color:#7b758d;stop-opacity:1;" />
      <stop
         offset="0.2915017"
         stop-color="#4b475b"
         id="stop4-7"
         style="stop-color:#4c425d;stop-opacity:1;" />
      <stop
         offset="0.63472694"
         stop-color="#4b475b"
         id="stop13-5"
         style="stop-color:#75678f;stop-opacity:1;" />
      <stop
         offset="0.85167235"
         stop-color="#bcb5d9"
         id="stop10-3"
         style="stop-color:#aba0c4;stop-opacity:1;" />
    </radialGradient>
    <linearGradient
       id="b-5"
       x1="57.369335"
       y1="37.498016"
       x2="146.54068"
       y2="180.202"
       gradientUnits="userSpaceOnUse">
      <stop
         offset="0"
         stop-color="#448491"
         id="stop11-6"
         style="stop-color:#6fa1b7;stop-opacity:1;" />
      <stop
         offset="0.32887372"
         stop-color="#526a77"
         id="stop14-2"
         style="stop-color:#4e788a;stop-opacity:1;" />
      <stop
         offset="0.51335096"
         stop-color="#526a77"
         id="stop2-9"
         style="stop-color:#426c7f;stop-opacity:1;" />
      <stop
         offset="0.69782823"
         stop-color="#526a77"
         id="stop12-1"
         style="stop-color:#527d90;stop-opacity:1;" />
      <stop
         offset="1"
         stop-color="#94d1d6"
         id="stop19-2"
         style="stop-color:#7ca9be;stop-opacity:1;" />
    </linearGradient>
  </defs>
  <title
     id="title19">Artboard 1</title>
  <path
     style="stroke-width:0.949927;font-size:67.4159px;font-family:Alata;-inkscape-font-specification:'Alata, Normal';fill:#1f0b26;fill-opacity:1;stroke-linecap:round;stroke-linejoin:round"
     d="m 7.1150571,248.91216 v -30.9439 h 7.1460859 l 0.06742,5.66293 q 1.213486,-2.76405 3.910122,-4.58428 2.764052,-1.88764 6.606758,-1.88764 4.988777,0 7.483165,2.08989 2.494389,2.02248 3.303379,5.79777 0.876407,3.77529 0.876407,8.96631 v 14.89892 h -7.280917 v -14.69667 q 0,-5.39327 -1.078655,-8.22474 -1.011238,-2.83147 -4.786529,-2.83147 -1.955061,0 -4.044954,1.21349 -2.089893,1.21348 -3.505627,3.50562 -1.415734,2.29214 -1.415734,5.66294 v 15.37083 z m 51.7754469,0.67415 q -4.11237,0 -7.685412,-1.95506 -3.505627,-1.95506 -5.662936,-5.59552 -2.157309,-3.64046 -2.157309,-8.69665 0,-4.85394 1.820229,-8.4944 1.887646,-3.64046 5.258441,-5.66294 3.438211,-2.02247 8.157324,-2.02247 2.831468,0 5.123608,1.01123 2.359557,0.94383 3.910122,2.35956 1.617982,1.34832 2.157309,2.62922 l 0.134832,-5.19102 h 6.943838 v 30.9439 h -6.876422 l -0.134832,-5.46069 q -0.674159,1.48315 -2.29214,2.89888 -1.550566,1.41573 -3.775291,2.35956 -2.224725,0.8764 -4.921361,0.8764 z m 1.213487,-6.06743 q 2.494388,0 4.516865,-1.14607 2.089893,-1.21348 3.303379,-3.37079 1.280902,-2.15731 1.280902,-5.12361 v -0.47191 q 0,-3.03372 -1.280902,-5.25844 -1.213486,-2.29214 -3.303379,-3.50563 -2.022477,-1.2809 -4.516865,-1.2809 -4.516866,0 -6.809006,2.89888 -2.224725,2.89889 -2.224725,7.14609 0,4.31462 2.224725,7.2135 2.29214,2.89888 6.809006,2.89888 z m 25.415841,21.77534 v -47.32596 h 7.011254 v 5.73035 q 1.550566,-2.76405 4.314618,-4.6517 2.831467,-1.88764 7.280916,-1.88764 4.17979,0 7.48317,1.75281 3.30338,1.75281 5.19102,5.32586 1.95506,3.57304 1.95506,9.03373 0,4.98877 -2.02248,8.69665 -2.02247,3.64046 -5.39327,5.66293 -3.37079,1.95506 -7.55058,1.95506 -3.977537,0 -6.809005,-1.41573 -2.831467,-1.41573 -4.449449,-3.91012 v 21.03376 z m 16.584308,-21.84275 q 4.58429,0 6.80901,-2.89889 2.29214,-2.89888 2.29214,-7.07867 0,-4.38203 -2.29214,-7.2135 -2.22472,-2.83147 -6.80901,-2.83147 -2.426969,0 -4.516861,1.14607 -2.089893,1.14608 -3.370796,3.30338 -1.280902,2.15731 -1.280902,5.19103 v 0.47191 q 0,2.9663 1.280902,5.25844 1.280903,2.22472 3.370796,3.43821 2.089892,1.21349 4.516861,1.21349 z m 38.09003,6.13484 q -4.11237,0 -7.68541,-1.95506 -3.50563,-1.95506 -5.66294,-5.59552 -2.15731,-3.64046 -2.15731,-8.69665 0,-4.85394 1.82023,-8.4944 1.88765,-3.64046 5.25844,-5.66294 3.43821,-2.02247 8.15733,-2.02247 2.83146,0 5.1236,1.01123 2.35956,0.94383 3.91013,2.35956 1.61798,1.34832 2.15731,2.62922 l 0.13483,-5.19102 h 6.94384 v 30.9439 h -6.87643 l -0.13483,-5.46069 q -0.67416,1.48315 -2.29214,2.89888 -1.55056,1.41573 -3.77529,2.35956 -2.22472,0.8764 -4.92136,0.8764 z m 1.21349,-6.06743 q 2.49438,0 4.51686,-1.14607 2.08989,-1.21348 3.30338,-3.37079 1.2809,-2.15731 1.2809,-5.12361 v -0.47191 q 0,-3.03372 -1.2809,-5.25844 -1.21349,-2.29214 -3.30338,-3.50563 -2.02248,-1.2809 -4.51686,-1.2809 -4.51687,0 -6.80901,2.89888 -2.22473,2.89889 -2.22473,7.14609 0,4.31462 2.22473,7.2135 2.29214,2.89888 6.80901,2.89888 z m 25.41578,5.39328 v -30.9439 h 7.28092 v 6.06743 q 1.07865,-3.03372 3.43821,-4.92136 2.42697,-1.95506 5.59552,-1.95506 2.15731,0 2.9663,0.40449 l -1.01124,7.34833 q -0.60675,-0.40449 -2.62922,-0.40449 -1.6854,0 -3.64046,0.74157 -1.95506,0.74158 -3.3708,2.62922 -1.34831,1.82023 -1.34831,5.12361 v 15.91016 z m 24.20228,0 v -30.9439 h 7.55058 v 30.9439 z m 3.77529,-36.74167 q -2.08989,0 -3.50562,-1.41573 -1.34832,-1.41574 -1.34832,-3.50563 0,-1.88765 1.34832,-3.23597 1.41573,-1.34831 3.50562,-1.34831 2.0899,0 3.43821,1.34831 1.41574,1.34832 1.41574,3.23597 0,2.08989 -1.41574,3.50563 -1.34831,1.41573 -3.43821,1.41573 z"
     id="text1"
     aria-label="napari&#10;"
     inkscape:label="napari"
     transform="matrix(2.0600001,0,0,2.0600001,-1.0987631e-6,0)" />
  <g
     id="g22"
     transform="matrix(2.0600001,0,0,2.0600001,-1.0987631e-6,0)"
     style="stroke-width:0.485437"
     inkscape:label="logo">
    <rect
       class="b"
       x="-1.5250686e-05"
       y="0"
       width="207.10001"
       height="207.10001"
       rx="47.084118"
       id="rect20-8"
       style="fill:#1f0b26;fill-opacity:1;stroke-width:1.07378"
       inkscape:label="outer-border" />
    <rect
       class="b"
       x="7.1199799"
       y="7.1200027"
       width="192.87"
       height="192.87"
       rx="40.057816"
       id="rect20"
       style="fill:url(#a-3)" />
    <g
       id="g32"
       transform="translate(-3.9714772)">
      <path
         class="a"
         d="M 113.3,188.39 C 105.13385,187.87904 97.294474,185.1065 90.06,179.43 83.80257,174.6342 78.578135,168.62405 74.7,161.76 69.863938,153.23489 65.883447,135.00919 58.39,123.87 53.956723,117.3475 47.466618,112.85815 41.61,107.76 36.341276,103.1305 29.408316,96.975635 25.51,86.75 20.070899,72.2968 25.364629,56.679938 30.7,46.2 39.581235,27.459928 60.011612,14.23427 80.19,19.78 c 6.623293,1.623772 12.542186,5.349832 16.87,10.62 4.56,5.64 6.4,12.73 7.89,22.34 1.32868,7.54009 1.10229,15.641087 4.22,22.73 2,4.2 5.82,6.65 8.33,8.27 6.54627,4.250824 16.16294,5.84073 28.93,4.9 6.94113,-0.804841 13.81247,-1.642201 20.68,0.15 14.33648,3.77191 19.47697,12.03733 22.59,25.67 1.07249,4.65199 3.85034,19.22617 0.09,32.1 -5.90028,19.26799 -22.00527,29.87139 -30.11,33.93 -19.6434,9.63269 -41.6221,8.32337 -46.38,7.9 z"
         id="path20"
         sodipodi:nodetypes="cccccccccccccccccc"
         style="fill:#1f0b26;fill-opacity:1" />
      <path
         class="c"
         d="m 113.98,180.77 c -7.12428,-0.28365 -13.71826,-3.16624 -19.35,-7.44 C 89.218811,169.16362 84.702318,163.94993 81.35,158 77.00092,150.30282 72.870645,131.68156 64.65,119.51 59.921381,112.42283 52.945893,107.56088 46.63,102.06 41.685598,97.728704 35.902904,92.576553 32.65,84.12 27.86575,71.91698 33.609421,57.382401 37.5,49.74 44.553113,34.718011 61.080095,22.4926 78.19,27.18 c 5.062108,1.183811 9.596819,3.993857 12.91,8 3,3.77 4.75,8.84 6.28,18.7 1.331988,8.324452 1.421328,17.094797 4.89,24.89 3,6.13 8,9.41 11.07,11.36 8.07351,5.215444 19.26316,7.206902 33.66,6.11 6.04785,-0.592962 12.0619,-1.675638 18.05,-0.09 11.68618,3.111388 14.65895,9.08614 17.15,20 0.8124,3.51921 3.50329,16.95377 0.2,28.25 -5.41353,17.53914 -20.81279,26.53804 -26.23,29.23 -18.03023,8.85411 -38.83148,7.43959 -42.19,7.14 z"
         id="path21"
         sodipodi:nodetypes="cccccccccccccccccc"
         style="fill:#ccb98f;fill-opacity:1" />
      <path
         class="d"
         d="m 76.59,33.19 c 3.801295,0.874747 7.205455,2.984764 9.68,6 2.23,2.75 3.62,7 5,15.73 1.365707,8.951448 1.677839,18.281765 5.43,26.65 3.73,7.7 10,11.77 13.29,13.88 11.16328,7.07332 24.61619,7.94449 37.47,7.09 7.67,-0.57 10.71,-1.72 15.95,-0.29 9.00827,2.21144 10.82611,7.08038 12.7,15.33 0.58265,2.51228 3.22398,15.08236 0.3,25.11 -4.56584,14.66608 -17.54654,22.68354 -23.04,25.4 -12.0038,5.8495 -27.72656,7.40788 -38.87,6.47 -5.94118,-0.21452 -11.42634,-2.60467 -16.1,-6.2 -4.75371,-3.64735 -8.720006,-8.21914 -11.66,-13.44 -4.114044,-7.40528 -8.225961,-26.17413 -16.97,-39 -4.949583,-7.55249 -12.288686,-12.79472 -19,-18.61 C 45.903355,93.041713 41.188954,88.792507 38.51,81.88 34.712681,71.691613 39.674334,59.241814 43.09,52.54 43.628514,51.389328 54.690056,28.397244 76.59,33.19 Z"
         id="path22"
         style="fill:url(#b-5)"
         sodipodi:nodetypes="cccccccccccccccccc" />
    </g>
  </g>
  <metadata
     id="metadata22">
    <rdf:RDF>
      <cc:Work
         rdf:about="">
        <dc:title>Artboard 1</dc:title>
      </cc:Work>
    </rdf:RDF>
  </metadata>
</svg>
