<?xml version="1.0" encoding="UTF-8" standalone="no"?>
<svg
   width="1587.2156"
   height="399.99997"
   viewBox="0 0 821.78085 207.09999"
   version="1.1"
   id="svg22"
   sodipodi:docname="logo-text-side.svg"
   inkscape:export-filename="logo-text.svg"
   inkscape:export-xdpi="96"
   inkscape:export-ydpi="96"
   inkscape:version="1.4.2 (ebf0e940d0, 2025-05-08)"
   xmlns:inkscape="http://www.inkscape.org/namespaces/inkscape"
   xmlns:sodipodi="http://sodipodi.sourceforge.net/DTD/sodipodi-0.dtd"
   xmlns:xlink="http://www.w3.org/1999/xlink"
   xmlns="http://www.w3.org/2000/svg"
   xmlns:svg="http://www.w3.org/2000/svg"
   xmlns:rdf="http://www.w3.org/1999/02/22-rdf-syntax-ns#"
   xmlns:cc="http://creativecommons.org/ns#"
   xmlns:dc="http://purl.org/dc/elements/1.1/">
  <sodipodi:namedview
     id="namedview22"
     pagecolor="#505050"
     bordercolor="#eeeeee"
     borderopacity="1"
     inkscape:showpageshadow="0"
     inkscape:pageopacity="0"
     inkscape:pagecheckerboard="0"
     inkscape:deskcolor="#505050"
     showgrid="false"
     showguides="true"
     inkscape:zoom="0.40669648"
     inkscape:cx="726.58609"
     inkscape:cy="384.80786"
     inkscape:window-width="2560"
     inkscape:window-height="1600"
     inkscape:window-x="0"
     inkscape:window-y="0"
     inkscape:window-maximized="0"
     inkscape:current-layer="g22">
    <inkscape:grid
       id="grid22"
       units="px"
       originx="8.2067503e-06"
       originy="0"
       spacingx="0.51775001"
       spacingy="0.51775"
       empcolor="#0099e5"
       empopacity="0.30196078"
       color="#0099e5"
       opacity="0.14902"
       empspacing="5"
       enabled="true"
       visible="false" />
    <sodipodi:guide
       position="102.17169,7.1100017"
       orientation="0,-1"
       id="guide1"
       inkscape:locked="false" />
    <sodipodi:guide
       position="103.55497,199.97999"
       orientation="0,-1"
       id="guide2"
       inkscape:locked="false" />
  </sodipodi:namedview>
  <defs
     id="defs19">
    <style
       id="style1">
      .a {
        fill: #26283d;
      }

      .b {
        fill: url(#a);
      }

      .c {
        fill: #a59678;
      }

      .d {
        fill: url(#b);
      }
    </style>
    <radialGradient
       id="a"
       cx="103.55"
       cy="103.55"
       fx="14.832241"
       fy="15.612816"
       r="196.89"
       gradientUnits="userSpaceOnUse"
       gradientTransform="translate(-0.00499744)">
      <stop
         offset="0"
         stop-color="#746b7f"
         id="stop1" />
      <stop
         offset="0.12"
         stop-color="#615b6f"
         id="stop2" />
      <stop
         offset="0.26"
         stop-color="#514c60"
         id="stop3" />
      <stop
         offset="0.37"
         stop-color="#4b475b"
         id="stop4" />
      <stop
         offset="0.44"
         stop-color="#4f4b5f"
         id="stop5" />
      <stop
         offset="0.51"
         stop-color="#5a566c"
         id="stop6" />
      <stop
         offset="0.59"
         stop-color="#6d6881"
         id="stop7" />
      <stop
         offset="0.67"
         stop-color="#87829e"
         id="stop8" />
      <stop
         offset="0.74"
         stop-color="#a9a2c3"
         id="stop9" />
      <stop
         offset="0.78"
         stop-color="#bcb5d9"
         id="stop10" />
    </radialGradient>
    <linearGradient
       id="b"
       x1="38.310001"
       y1="53.82"
       x2="165.60001"
       y2="163.88"
       gradientUnits="userSpaceOnUse">
      <stop
         offset="0.05"
         stop-color="#448491"
         id="stop11" />
      <stop
         offset="0.15"
         stop-color="#4a7986"
         id="stop12" />
      <stop
         offset="0.33"
         stop-color="#506e7b"
         id="stop13" />
      <stop
         offset="0.52"
         stop-color="#526a77"
         id="stop14" />
      <stop
         offset="0.6"
         stop-color="#56707c"
         id="stop15" />
      <stop
         offset="0.7"
         stop-color="#607f8b"
         id="stop16" />
      <stop
         offset="0.82"
         stop-color="#7099a3"
         id="stop17" />
      <stop
         offset="0.94"
         stop-color="#87bdc4"
         id="stop18" />
      <stop
         offset="1"
         stop-color="#94d1d6"
         id="stop19" />
    </linearGradient>
    <radialGradient
       id="a-6"
       cx="103.55"
       cy="103.55"
       fx="14.832241"
       fy="15.612816"
       r="196.89"
       gradientUnits="userSpaceOnUse"
       gradientTransform="translate(-3.2384032e-6)">
      <stop
         offset="0"
         stop-color="#746b7f"
         id="stop1-7" />
      <stop
         offset="0.12"
         stop-color="#615b6f"
         id="stop2-5" />
      <stop
         offset="0.26"
         stop-color="#514c60"
         id="stop3-3" />
      <stop
         offset="0.37"
         stop-color="#4b475b"
         id="stop4-5" />
      <stop
         offset="0.44"
         stop-color="#4f4b5f"
         id="stop5-6" />
      <stop
         offset="0.51"
         stop-color="#5a566c"
         id="stop6-2" />
      <stop
         offset="0.59"
         stop-color="#6d6881"
         id="stop7-9" />
      <stop
         offset="0.67"
         stop-color="#87829e"
         id="stop8-1" />
      <stop
         offset="0.74"
         stop-color="#a9a2c3"
         id="stop9-2" />
      <stop
         offset="0.78"
         stop-color="#bcb5d9"
         id="stop10-7" />
    </radialGradient>
    <linearGradient
       inkscape:collect="always"
       xlink:href="#b"
       id="linearGradient1"
       gradientUnits="userSpaceOnUse"
       x1="38.310001"
       y1="53.82"
       x2="165.60001"
       y2="163.88"
       gradientTransform="translate(-3.9714504)" />
  </defs>
  <title
     id="title19">Artboard 1</title>
  <g
     id="g22">
    <rect
       class="b"
       x="5.333801e-07"
       y="0"
       width="207.09999"
       height="207.09999"
       rx="47.084114"
       id="rect20-8"
       style="fill:#06283d;fill-opacity:1;stroke-width:2.212" />
    <rect
       class="b"
       x="7.1199837"
       y="7.1200032"
       width="192.86998"
       height="192.86998"
       rx="40.057812"
       id="rect20-7"
       style="fill:url(#a-6);stroke-width:2.06" />
    <path
       class="a"
       d="m 109.32854,188.38998 c -8.16616,-0.51097 -16.005532,-3.2835 -23.240003,-8.96 -6.257433,-4.79581 -11.481858,-10.80594 -15.36,-17.67001 -4.836068,-8.5251 -8.816551,-26.7508 -16.31,-37.88999 C 49.98526,117.34748 43.495161,112.85813 37.638539,107.75999 32.36981,103.13048 25.436856,96.975622 21.538536,86.749985 16.099438,72.296787 21.393171,56.679928 26.728541,46.199994 35.609779,27.459918 56.040143,14.234262 76.218543,19.77999 c 6.62329,1.623777 12.542184,5.349833 16.869994,10.620001 4.560006,5.64 6.399998,12.729996 7.889993,22.340005 1.32868,7.540082 1.10229,15.641078 4.22001,22.729989 2,4.200008 5.82,6.650006 8.33,8.270003 6.54626,4.250826 16.16293,5.840733 28.93,4.899996 6.94113,-0.80484 13.81246,-1.642202 20.67999,0.150007 14.33649,3.771905 19.47697,12.037319 22.59,25.669999 1.07249,4.65199 3.85034,19.22616 0.09,32.09999 -5.90027,19.26799 -22.00527,29.87139 -30.11,33.93 -19.6434,9.63268 -41.6221,8.32337 -46.37998,7.9 z"
       id="path20-9"
       sodipodi:nodetypes="cccccccccccccccccc"
       style="fill:#06283d;stroke-width:2.06" />
    <path
       class="c"
       d="m 110.00854,180.76997 c -7.12429,-0.28364 -13.718258,-3.16623 -19.350007,-7.43999 -5.411177,-4.16639 -9.927676,-9.38007 -13.27999,-15.33 -4.349086,-7.69718 -8.479354,-26.31844 -16.70001,-38.49 -4.728609,-7.08716 -11.704102,-11.94912 -18.019989,-17.45 C 37.714138,97.72869 31.931441,92.576542 28.678538,84.119981 23.894287,71.916964 29.637962,57.382387 33.528541,49.739991 40.581647,34.718006 57.108629,22.492588 74.218539,27.17999 c 5.062113,1.183813 9.596828,3.993862 12.910002,8.000002 2.999993,3.769995 4.750003,8.839993 6.280004,18.699996 1.331976,8.324456 1.421318,17.094801 4.889992,24.890003 3.000003,6.129997 8.000003,9.409995 11.069993,11.359992 8.07352,5.215441 19.26316,7.206905 33.66,6.110003 6.04786,-0.592966 12.0619,-1.675641 18.05,-0.08997 11.68618,3.111383 14.65895,9.086124 17.15,19.999994 0.8124,3.51921 3.50329,16.95377 0.2,28.25 -5.41353,17.53913 -20.81279,26.53804 -26.23,29.23 -18.03023,8.8541 -38.83147,7.43958 -42.18999,7.13999 z"
       id="path21-2"
       sodipodi:nodetypes="cccccccccccccccccc"
       style="fill:#a59678;stroke-width:2.06" />
    <path
       class="d"
       d="m 72.618536,33.189992 c 3.801302,0.87475 7.205467,2.984758 9.680011,5.999999 2.229989,2.749998 3.619988,6.999999 4.999996,15.730001 1.365701,8.951449 1.677837,18.281766 5.429996,26.649991 3.730005,7.700001 10.000001,11.769997 13.289991,13.880005 11.16329,7.073322 24.61619,7.944492 37.47,7.089992 7.67,-0.57 10.71001,-1.71999 15.95001,-0.28999 9.00826,2.21143 10.8261,7.08037 12.69999,15.33 0.58265,2.51227 3.22398,15.08235 0.3,25.11 -4.56583,14.66606 -17.54654,22.68354 -23.04,25.39999 -12.0038,5.8495 -27.72656,7.40787 -38.87,6.46999 -5.94118,-0.21452 -11.42633,-2.60466 -16.099988,-6.2 -4.753716,-3.64734 -8.720011,-8.21913 -11.660006,-13.43999 -4.11404,-7.40528 -8.22596,-26.17413 -16.969999,-38.99999 C 60.848953,108.3675 53.509852,103.12526 46.798541,97.309989 41.931891,93.041693 37.217498,88.792489 34.538534,81.879988 30.74122,71.691607 35.702875,59.2418 39.118534,52.539996 39.657047,51.38932 50.718595,28.397241 72.618536,33.189992 Z"
       id="path22-0"
       style="fill:url(#linearGradient1);stroke-width:2.06"
       sodipodi:nodetypes="cccccccccccccccccc" />
    <path
       style="font-size:67.4159px;font-family:Alata;-inkscape-font-specification:'Alata, Normal';fill:#06283d;stroke-width:1.95685;stroke-linecap:round;stroke-linejoin:round"
       d="M 228.8455,149.54068 V 54.247541 h 22.00672 l 0.20754,17.43925 q 3.73698,-8.512018 12.0414,-14.1175 8.51202,-5.813072 20.34582,-5.813072 15.36315,0 23.04473,6.43591 7.68159,6.22832 10.17291,17.854497 2.69895,11.626176 2.69895,27.612164 v 45.88189 h -22.42193 v -45.25906 q 0,-16.608818 -3.32176,-25.328458 -3.11416,-8.719639 -14.74032,-8.719639 -6.02071,0 -12.45665,3.736996 -6.4359,3.736968 -10.79571,10.795716 -4.35984,7.05875 -4.35984,17.439275 v 47.33517 z m 159.44485,2.07609 q -12.66423,0 -23.66758,-6.0207 -10.79574,-6.0207 -17.43927,-17.23167 -6.64354,-11.21095 -6.64354,-26.78172 0,-14.94793 5.60549,-26.158893 5.81311,-11.21096 16.1936,-17.43928 10.58813,-6.228288 25.12087,-6.228288 8.71961,0 15.77835,3.114128 7.26639,2.906568 12.04143,7.266373 4.98264,4.152214 6.6435,8.096803 l 0.41525,-15.985982 h 21.38384 v 95.293139 h -21.17624 l -0.41523,-16.81645 q -2.0761,4.56745 -7.05874,8.92725 -4.77505,4.3598 -11.62617,7.26636 -6.85117,2.69893 -15.15556,2.69893 z m 3.73699,-18.68494 q 7.68156,0 13.90989,-3.52938 6.4359,-3.73696 10.1729,-10.38048 3.94459,-6.64354 3.94459,-15.7784 v -1.45328 q 0,-9.342467 -3.94459,-16.193593 -3.737,-7.05875 -10.1729,-10.795748 -6.22833,-3.944588 -13.90989,-3.944588 -13.90991,0 -20.96865,8.927231 -6.85116,8.927264 -6.85116,22.006698 0,13.28708 6.85116,22.21432 7.05874,8.92722 20.96865,8.92722 z m 78.26924,67.05815 V 54.247541 h 21.59146 v 17.646872 q 4.77505,-8.512016 13.28707,-14.325122 8.71964,-5.813072 22.42189,-5.813072 12.87186,0 23.04476,5.397858 10.17292,5.397858 15.98598,16.401227 6.0207,11.003339 6.0207,27.819786 0,15.36314 -6.22832,26.78172 -6.22827,11.21097 -16.60882,17.43926 -10.3805,6.0207 -23.25235,6.0207 -12.24898,0 -20.96864,-4.35982 -8.71962,-4.3598 -13.70227,-12.04139 v 64.77442 z m 51.07211,-67.26575 q 14.11752,0 20.96866,-8.92726 7.05874,-8.92721 7.05874,-21.79908 0,-13.494658 -7.05874,-22.214298 -6.85114,-8.719641 -20.96866,-8.719641 -7.47394,0 -13.90988,3.529376 -6.43591,3.529406 -10.3805,10.172908 -3.94459,6.643535 -3.94459,15.986015 v 1.45326 q 0,9.13485 3.94459,16.19362 3.94459,6.85112 10.3805,10.58812 6.43594,3.73698 13.90988,3.73698 z m 117.29997,18.89254 q -12.66422,0 -23.66757,-6.0207 -10.79574,-6.0207 -17.43928,-17.23167 -6.64354,-11.21095 -6.64354,-26.78172 0,-14.94793 5.60548,-26.158893 5.8131,-11.21096 16.19362,-17.43928 10.58811,-6.228288 25.12086,-6.228288 8.71961,0 15.77835,3.114128 7.26637,2.906568 12.04144,7.266373 4.98263,4.152214 6.64353,8.096803 l 0.41522,-15.985982 h 21.38386 v 95.293139 h -21.17628 l -0.41521,-16.81645 q -2.07612,4.56745 -7.05874,8.92725 -4.77503,4.3598 -11.6262,7.26636 -6.85112,2.69893 -15.15554,2.69893 z m 3.73699,-18.68494 q 7.68155,0 13.90988,-3.52938 6.43592,-3.73696 10.17291,-10.38048 3.94458,-6.64354 3.94458,-15.7784 v -1.45328 q 0,-9.342467 -3.94458,-16.193593 -3.73699,-7.05875 -10.17291,-10.795748 -6.22833,-3.944588 -13.90988,-3.944588 -13.9099,0 -20.96865,8.927231 -6.85116,8.927264 -6.85116,22.006698 0,13.28708 6.85116,22.21432 7.05875,8.92722 20.96865,8.92722 z m 78.26906,16.60885 V 54.247541 h 22.42191 v 18.684926 q 3.32178,-9.34248 10.58813,-15.155552 7.47396,-6.020696 17.23165,-6.020696 6.64354,0 9.13487,1.245644 l -3.11415,22.629516 q -1.86853,-1.245644 -8.09681,-1.245644 -5.19028,0 -11.21097,2.283698 -6.0207,2.283729 -10.38053,8.096802 -4.15219,5.605483 -4.15219,15.778385 v 48.99606 z m 74.53201,0 V 54.247541 h 23.25236 V 149.54068 Z M 806.83289,36.393044 q -6.43589,0 -10.79569,-4.359804 -4.15223,-4.359835 -4.15223,-10.795748 0,-5.813103 4.15223,-9.965315 4.3598,-4.1521822 10.79569,-4.1521822 6.43595,0 10.58814,4.1521822 4.35983,4.152212 4.35983,9.965315 0,6.435913 -4.35983,10.795748 -4.15219,4.359804 -10.58814,4.359804 z"
       id="text1"
       aria-label="napari&#10;" />
  </g>
  <metadata
     id="metadata22">
    <rdf:RDF>
      <cc:Work
         rdf:about="">
        <dc:title>Artboard 1</dc:title>
      </cc:Work>
    </rdf:RDF>
  </metadata>
</svg>
