<?xml version="1.0" encoding="UTF-8" standalone="no"?>
<svg
   width="399.99997"
   height="512.39832"
   viewBox="0 0 207.09998 265.29423"
   version="1.1"
   id="svg22"
   sodipodi:docname="logo-text-dark.svg"
   inkscape:export-filename="logo-text-dark.png"
   inkscape:export-xdpi="96"
   inkscape:export-ydpi="96"
   inkscape:version="1.4.2 (ebf0e940d0, 2025-05-08)"
   xmlns:inkscape="http://www.inkscape.org/namespaces/inkscape"
   xmlns:sodipodi="http://sodipodi.sourceforge.net/DTD/sodipodi-0.dtd"
   xmlns:xlink="http://www.w3.org/1999/xlink"
   xmlns="http://www.w3.org/2000/svg"
   xmlns:svg="http://www.w3.org/2000/svg"
   xmlns:rdf="http://www.w3.org/1999/02/22-rdf-syntax-ns#"
   xmlns:cc="http://creativecommons.org/ns#"
   xmlns:dc="http://purl.org/dc/elements/1.1/">
  <sodipodi:namedview
     id="namedview22"
     pagecolor="#505050"
     bordercolor="#eeeeee"
     borderopacity="1"
     inkscape:showpageshadow="0"
     inkscape:pageopacity="0"
     inkscape:pagecheckerboard="0"
     inkscape:deskcolor="#505050"
     showgrid="false"
     showguides="true"
     inkscape:zoom="1.5971775"
     inkscape:cx="198.47512"
     inkscape:cy="288.32111"
     inkscape:window-width="2560"
     inkscape:window-height="1600"
     inkscape:window-x="0"
     inkscape:window-y="0"
     inkscape:window-maximized="0"
     inkscape:current-layer="g22">
    <inkscape:grid
       id="grid22"
       units="px"
       originx="9.2735112e-06"
       originy="0"
       spacingx="0.51775001"
       spacingy="0.51775"
       empcolor="#0099e5"
       empopacity="0.30196078"
       color="#0099e5"
       opacity="0.14902"
       empspacing="5"
       enabled="true"
       visible="false" />
  </sodipodi:namedview>
  <defs
     id="defs19">
    <style
       id="style1">
      .a {
        fill: #26283d;
      }

      .b {
        fill: url(#a);
      }

      .c {
        fill: #a59678;
      }

      .d {
        fill: url(#b);
      }
    </style>
    <radialGradient
       id="a"
       cx="103.55"
       cy="103.55"
       fx="14.832241"
       fy="15.612816"
       r="196.89"
       gradientUnits="userSpaceOnUse"
       gradientTransform="translate(-0.00499744)">
      <stop
         offset="0"
         stop-color="#746b7f"
         id="stop1" />
      <stop
         offset="0.12"
         stop-color="#615b6f"
         id="stop2" />
      <stop
         offset="0.26"
         stop-color="#514c60"
         id="stop3" />
      <stop
         offset="0.37"
         stop-color="#4b475b"
         id="stop4" />
      <stop
         offset="0.44"
         stop-color="#4f4b5f"
         id="stop5" />
      <stop
         offset="0.51"
         stop-color="#5a566c"
         id="stop6" />
      <stop
         offset="0.59"
         stop-color="#6d6881"
         id="stop7" />
      <stop
         offset="0.67"
         stop-color="#87829e"
         id="stop8" />
      <stop
         offset="0.74"
         stop-color="#a9a2c3"
         id="stop9" />
      <stop
         offset="0.78"
         stop-color="#bcb5d9"
         id="stop10" />
    </radialGradient>
    <linearGradient
       id="b"
       x1="38.310001"
       y1="53.82"
       x2="165.60001"
       y2="163.88"
       gradientUnits="userSpaceOnUse">
      <stop
         offset="0.05"
         stop-color="#448491"
         id="stop11" />
      <stop
         offset="0.15"
         stop-color="#4a7986"
         id="stop12" />
      <stop
         offset="0.33"
         stop-color="#506e7b"
         id="stop13" />
      <stop
         offset="0.52"
         stop-color="#526a77"
         id="stop14" />
      <stop
         offset="0.6"
         stop-color="#56707c"
         id="stop15" />
      <stop
         offset="0.7"
         stop-color="#607f8b"
         id="stop16" />
      <stop
         offset="0.82"
         stop-color="#7099a3"
         id="stop17" />
      <stop
         offset="0.94"
         stop-color="#87bdc4"
         id="stop18" />
      <stop
         offset="1"
         stop-color="#94d1d6"
         id="stop19" />
    </linearGradient>
    <radialGradient
       id="a-6"
       cx="103.55"
       cy="103.55"
       fx="14.832241"
       fy="15.612816"
       r="196.89"
       gradientUnits="userSpaceOnUse"
       gradientTransform="translate(-3.2384032e-6)">
      <stop
         offset="0"
         stop-color="#746b7f"
         id="stop1-7" />
      <stop
         offset="0.12"
         stop-color="#615b6f"
         id="stop2-5" />
      <stop
         offset="0.26"
         stop-color="#514c60"
         id="stop3-3" />
      <stop
         offset="0.37"
         stop-color="#4b475b"
         id="stop4-5" />
      <stop
         offset="0.44"
         stop-color="#4f4b5f"
         id="stop5-6" />
      <stop
         offset="0.51"
         stop-color="#5a566c"
         id="stop6-2" />
      <stop
         offset="0.59"
         stop-color="#6d6881"
         id="stop7-9" />
      <stop
         offset="0.67"
         stop-color="#87829e"
         id="stop8-1" />
      <stop
         offset="0.74"
         stop-color="#a9a2c3"
         id="stop9-2" />
      <stop
         offset="0.78"
         stop-color="#bcb5d9"
         id="stop10-7" />
    </radialGradient>
    <linearGradient
       inkscape:collect="always"
       xlink:href="#b"
       id="linearGradient1"
       gradientUnits="userSpaceOnUse"
       x1="38.310001"
       y1="53.82"
       x2="165.60001"
       y2="163.88"
       gradientTransform="translate(-3.9714504)" />
  </defs>
  <title
     id="title19">Artboard 1</title>
  <g
     id="g22">
    <rect
       class="b"
       x="5.333801e-07"
       y="0"
       width="207.09999"
       height="207.09999"
       rx="47.084114"
       id="rect20-8"
       style="fill:#a59678;fill-opacity:1;stroke-width:2.212" />
    <rect
       class="b"
       x="7.1199837"
       y="7.1200032"
       width="192.86998"
       height="192.86998"
       rx="40.057812"
       id="rect20-7"
       style="fill:url(#a-6);stroke-width:2.06" />
    <path
       class="a"
       d="m 109.32854,188.38998 c -8.16616,-0.51097 -16.005532,-3.2835 -23.240003,-8.96 -6.257433,-4.79581 -11.481858,-10.80594 -15.36,-17.67001 -4.836068,-8.5251 -8.816551,-26.7508 -16.31,-37.88999 C 49.98526,117.34748 43.495161,112.85813 37.638539,107.75999 32.36981,103.13048 25.436856,96.975622 21.538536,86.749985 16.099438,72.296787 21.393171,56.679928 26.728541,46.199994 35.609779,27.459918 56.040143,14.234262 76.218543,19.77999 c 6.62329,1.623777 12.542184,5.349833 16.869994,10.620001 4.560006,5.64 6.399998,12.729996 7.889993,22.340005 1.32868,7.540082 1.10229,15.641078 4.22001,22.729989 2,4.200008 5.82,6.650006 8.33,8.270003 6.54626,4.250826 16.16293,5.840733 28.93,4.899996 6.94113,-0.80484 13.81246,-1.642202 20.67999,0.150007 14.33649,3.771905 19.47697,12.037319 22.59,25.669999 1.07249,4.65199 3.85034,19.22616 0.09,32.09999 -5.90027,19.26799 -22.00527,29.87139 -30.11,33.93 -19.6434,9.63268 -41.6221,8.32337 -46.37998,7.9 z"
       id="path20-9"
       sodipodi:nodetypes="cccccccccccccccccc"
       style="fill:#06283d;stroke-width:2.06" />
    <path
       class="c"
       d="m 110.00854,180.76997 c -7.12429,-0.28364 -13.718258,-3.16623 -19.350007,-7.43999 -5.411177,-4.16639 -9.927676,-9.38007 -13.27999,-15.33 -4.349086,-7.69718 -8.479354,-26.31844 -16.70001,-38.49 -4.728609,-7.08716 -11.704102,-11.94912 -18.019989,-17.45 C 37.714138,97.72869 31.931441,92.576542 28.678538,84.119981 23.894287,71.916964 29.637962,57.382387 33.528541,49.739991 40.581647,34.718006 57.108629,22.492588 74.218539,27.17999 c 5.062113,1.183813 9.596828,3.993862 12.910002,8.000002 2.999993,3.769995 4.750003,8.839993 6.280004,18.699996 1.331976,8.324456 1.421318,17.094801 4.889992,24.890003 3.000003,6.129997 8.000003,9.409995 11.069993,11.359992 8.07352,5.215441 19.26316,7.206905 33.66,6.110003 6.04786,-0.592966 12.0619,-1.675641 18.05,-0.08997 11.68618,3.111383 14.65895,9.086124 17.15,19.999994 0.8124,3.51921 3.50329,16.95377 0.2,28.25 -5.41353,17.53913 -20.81279,26.53804 -26.23,29.23 -18.03023,8.8541 -38.83147,7.43958 -42.18999,7.13999 z"
       id="path21-2"
       sodipodi:nodetypes="cccccccccccccccccc"
       style="fill:#a59678;stroke-width:2.06" />
    <path
       class="d"
       d="m 72.618536,33.189992 c 3.801302,0.87475 7.205467,2.984758 9.680011,5.999999 2.229989,2.749998 3.619988,6.999999 4.999996,15.730001 1.365701,8.951449 1.677837,18.281766 5.429996,26.649991 3.730005,7.700001 10.000001,11.769997 13.289991,13.880005 11.16329,7.073322 24.61619,7.944492 37.47,7.089992 7.67,-0.57 10.71001,-1.71999 15.95001,-0.28999 9.00826,2.21143 10.8261,7.08037 12.69999,15.33 0.58265,2.51227 3.22398,15.08235 0.3,25.11 -4.56583,14.66606 -17.54654,22.68354 -23.04,25.39999 -12.0038,5.8495 -27.72656,7.40787 -38.87,6.46999 -5.94118,-0.21452 -11.42633,-2.60466 -16.099988,-6.2 -4.753716,-3.64734 -8.720011,-8.21913 -11.660006,-13.43999 -4.11404,-7.40528 -8.22596,-26.17413 -16.969999,-38.99999 C 60.848953,108.3675 53.509852,103.12526 46.798541,97.309989 41.931891,93.041693 37.217498,88.792489 34.538534,81.879988 30.74122,71.691607 35.702875,59.2418 39.118534,52.539996 39.657047,51.38932 50.718595,28.397241 72.618536,33.189992 Z"
       id="path22-0"
       style="fill:url(#linearGradient1);stroke-width:2.06"
       sodipodi:nodetypes="cccccccccccccccccc" />
    <path
       style="font-size:67.4159px;font-family:Alata;-inkscape-font-specification:'Alata, Normal';fill:#a59678;stroke-width:1.95685;stroke-linecap:round;stroke-linejoin:round;fill-opacity:1"
       d="m 7.1150571,248.91216 v -30.9439 h 7.1460859 l 0.06742,5.66293 q 1.213486,-2.76405 3.910122,-4.58428 2.764052,-1.88764 6.606758,-1.88764 4.988777,0 7.483165,2.08989 2.494389,2.02248 3.303379,5.79777 0.876407,3.77529 0.876407,8.96631 v 14.89892 h -7.280917 v -14.69667 q 0,-5.39327 -1.078655,-8.22474 -1.011238,-2.83147 -4.786529,-2.83147 -1.955061,0 -4.044954,1.21349 -2.089893,1.21348 -3.505627,3.50562 -1.415734,2.29214 -1.415734,5.66294 v 15.37083 z m 51.7754469,0.67415 q -4.11237,0 -7.685412,-1.95506 -3.505627,-1.95506 -5.662936,-5.59552 -2.157309,-3.64046 -2.157309,-8.69665 0,-4.85394 1.820229,-8.4944 1.887646,-3.64046 5.258441,-5.66294 3.438211,-2.02247 8.157324,-2.02247 2.831468,0 5.123608,1.01123 2.359557,0.94383 3.910122,2.35956 1.617982,1.34832 2.157309,2.62922 l 0.134832,-5.19102 h 6.943838 v 30.9439 h -6.876422 l -0.134832,-5.46069 q -0.674159,1.48315 -2.29214,2.89888 -1.550566,1.41573 -3.775291,2.35956 -2.224725,0.8764 -4.921361,0.8764 z m 1.213487,-6.06743 q 2.494388,0 4.516865,-1.14607 2.089893,-1.21348 3.303379,-3.37079 1.280902,-2.15731 1.280902,-5.12361 v -0.47191 q 0,-3.03372 -1.280902,-5.25844 -1.213486,-2.29214 -3.303379,-3.50563 -2.022477,-1.2809 -4.516865,-1.2809 -4.516866,0 -6.809006,2.89888 -2.224725,2.89889 -2.224725,7.14609 0,4.31462 2.224725,7.2135 2.29214,2.89888 6.809006,2.89888 z m 25.415841,21.77534 v -47.32596 h 7.011254 v 5.73035 q 1.550566,-2.76405 4.314618,-4.6517 2.831467,-1.88764 7.280916,-1.88764 4.17979,0 7.48317,1.75281 3.30338,1.75281 5.19102,5.32586 1.95506,3.57304 1.95506,9.03373 0,4.98877 -2.02248,8.69665 -2.02247,3.64046 -5.39327,5.66293 -3.37079,1.95506 -7.55058,1.95506 -3.977537,0 -6.809005,-1.41573 -2.831467,-1.41573 -4.449449,-3.91012 v 21.03376 z m 16.584308,-21.84275 q 4.58429,0 6.80901,-2.89889 2.29214,-2.89888 2.29214,-7.07867 0,-4.38203 -2.29214,-7.2135 -2.22472,-2.83147 -6.80901,-2.83147 -2.426969,0 -4.516861,1.14607 -2.089893,1.14608 -3.370796,3.30338 -1.280902,2.15731 -1.280902,5.19103 v 0.47191 q 0,2.9663 1.280902,5.25844 1.280903,2.22472 3.370796,3.43821 2.089892,1.21349 4.516861,1.21349 z m 38.09003,6.13484 q -4.11237,0 -7.68541,-1.95506 -3.50563,-1.95506 -5.66294,-5.59552 -2.15731,-3.64046 -2.15731,-8.69665 0,-4.85394 1.82023,-8.4944 1.88765,-3.64046 5.25844,-5.66294 3.43821,-2.02247 8.15733,-2.02247 2.83146,0 5.1236,1.01123 2.35956,0.94383 3.91013,2.35956 1.61798,1.34832 2.15731,2.62922 l 0.13483,-5.19102 h 6.94384 v 30.9439 h -6.87643 l -0.13483,-5.46069 q -0.67416,1.48315 -2.29214,2.89888 -1.55056,1.41573 -3.77529,2.35956 -2.22472,0.8764 -4.92136,0.8764 z m 1.21349,-6.06743 q 2.49438,0 4.51686,-1.14607 2.08989,-1.21348 3.30338,-3.37079 1.2809,-2.15731 1.2809,-5.12361 v -0.47191 q 0,-3.03372 -1.2809,-5.25844 -1.21349,-2.29214 -3.30338,-3.50563 -2.02248,-1.2809 -4.51686,-1.2809 -4.51687,0 -6.80901,2.89888 -2.22473,2.89889 -2.22473,7.14609 0,4.31462 2.22473,7.2135 2.29214,2.89888 6.80901,2.89888 z m 25.41578,5.39328 v -30.9439 h 7.28092 v 6.06743 q 1.07865,-3.03372 3.43821,-4.92136 2.42697,-1.95506 5.59552,-1.95506 2.15731,0 2.9663,0.40449 l -1.01124,7.34833 q -0.60675,-0.40449 -2.62922,-0.40449 -1.6854,0 -3.64046,0.74157 -1.95506,0.74158 -3.3708,2.62922 -1.34831,1.82023 -1.34831,5.12361 v 15.91016 z m 24.20228,0 v -30.9439 h 7.55058 v 30.9439 z m 3.77529,-36.74167 q -2.08989,0 -3.50562,-1.41573 -1.34832,-1.41574 -1.34832,-3.50563 0,-1.88765 1.34832,-3.23597 1.41573,-1.34831 3.50562,-1.34831 2.0899,0 3.43821,1.34831 1.41574,1.34832 1.41574,3.23597 0,2.08989 -1.41574,3.50563 -1.34831,1.41573 -3.43821,1.41573 z"
       id="text1"
       aria-label="napari&#10;" />
  </g>
  <metadata
     id="metadata22">
    <rdf:RDF>
      <cc:Work
         rdf:about="">
        <dc:title>Artboard 1</dc:title>
      </cc:Work>
    </rdf:RDF>
  </metadata>
</svg>
