<?xml version="1.0" encoding="UTF-8" standalone="no"?>
<svg
   width="3272.8987"
   height="824"
   viewBox="0 0 1694.5433 426.626"
   version="1.1"
   id="svg22"
   sodipodi:docname="logo-text-side.svg"
   inkscape:export-filename="logo-text.png"
   inkscape:export-xdpi="96"
   inkscape:export-ydpi="96"
   inkscape:version="1.4.2 (ebf0e940d0, 2025-05-08)"
   xmlns:inkscape="http://www.inkscape.org/namespaces/inkscape"
   xmlns:sodipodi="http://sodipodi.sourceforge.net/DTD/sodipodi-0.dtd"
   xmlns="http://www.w3.org/2000/svg"
   xmlns:svg="http://www.w3.org/2000/svg"
   xmlns:rdf="http://www.w3.org/1999/02/22-rdf-syntax-ns#"
   xmlns:cc="http://creativecommons.org/ns#"
   xmlns:dc="http://purl.org/dc/elements/1.1/">
  <sodipodi:namedview
     id="namedview22"
     pagecolor="#505050"
     bordercolor="#eeeeee"
     borderopacity="1"
     inkscape:showpageshadow="0"
     inkscape:pageopacity="0"
     inkscape:pagecheckerboard="0"
     inkscape:deskcolor="#505050"
     showgrid="false"
     showguides="true"
     inkscape:zoom="0.07058594"
     inkscape:cx="998.78248"
     inkscape:cy="4441.3944"
     inkscape:window-width="906"
     inkscape:window-height="1568"
     inkscape:window-x="0"
     inkscape:window-y="0"
     inkscape:window-maximized="0"
     inkscape:current-layer="svg22">
    <inkscape:grid
       id="grid22"
       units="px"
       originx="8.1747476e-06"
       originy="0"
       spacingx="0.51775001"
       spacingy="0.51775"
       empcolor="#0099e5"
       empopacity="0.30196078"
       color="#0099e5"
       opacity="0.14902"
       empspacing="5"
       enabled="true"
       visible="false" />
  </sodipodi:namedview>
  <defs
     id="defs19">
    <style
       id="style1">
      .a {
        fill: #26283d;
      }

      .b {
        fill: url(#a);
      }

      .c {
        fill: #a59678;
      }

      .d {
        fill: url(#b);
      }
    </style>
    <radialGradient
       id="a"
       cx="103.55"
       cy="103.55"
       fx="14.832241"
       fy="15.612816"
       r="196.89"
       gradientUnits="userSpaceOnUse"
       gradientTransform="translate(-0.00499744)">
      <stop
         offset="0"
         stop-color="#746b7f"
         id="stop1" />
      <stop
         offset="0.12"
         stop-color="#615b6f"
         id="stop2" />
      <stop
         offset="0.26"
         stop-color="#514c60"
         id="stop3" />
      <stop
         offset="0.37"
         stop-color="#4b475b"
         id="stop4" />
      <stop
         offset="0.44"
         stop-color="#4f4b5f"
         id="stop5" />
      <stop
         offset="0.51"
         stop-color="#5a566c"
         id="stop6" />
      <stop
         offset="0.59"
         stop-color="#6d6881"
         id="stop7" />
      <stop
         offset="0.67"
         stop-color="#87829e"
         id="stop8" />
      <stop
         offset="0.74"
         stop-color="#a9a2c3"
         id="stop9" />
      <stop
         offset="0.78"
         stop-color="#bcb5d9"
         id="stop10" />
    </radialGradient>
    <linearGradient
       id="b"
       x1="38.310001"
       y1="53.82"
       x2="165.60001"
       y2="163.88"
       gradientUnits="userSpaceOnUse">
      <stop
         offset="0.05"
         stop-color="#448491"
         id="stop11" />
      <stop
         offset="0.15"
         stop-color="#4a7986"
         id="stop12" />
      <stop
         offset="0.33"
         stop-color="#506e7b"
         id="stop13" />
      <stop
         offset="0.52"
         stop-color="#526a77"
         id="stop14" />
      <stop
         offset="0.6"
         stop-color="#56707c"
         id="stop15" />
      <stop
         offset="0.7"
         stop-color="#607f8b"
         id="stop16" />
      <stop
         offset="0.82"
         stop-color="#7099a3"
         id="stop17" />
      <stop
         offset="0.94"
         stop-color="#87bdc4"
         id="stop18" />
      <stop
         offset="1"
         stop-color="#94d1d6"
         id="stop19" />
    </linearGradient>
    <radialGradient
       id="a-6"
       cx="103.55"
       cy="103.55"
       fx="14.832241"
       fy="15.612816"
       r="196.89"
       gradientUnits="userSpaceOnUse"
       gradientTransform="translate(-3.2384032e-6)">
      <stop
         offset="0"
         stop-color="#746b7f"
         id="stop1-7" />
      <stop
         offset="0.12"
         stop-color="#615b6f"
         id="stop2-5" />
      <stop
         offset="0.26"
         stop-color="#514c60"
         id="stop3-3" />
      <stop
         offset="0.37"
         stop-color="#4b475b"
         id="stop4-5" />
      <stop
         offset="0.44"
         stop-color="#4f4b5f"
         id="stop5-6" />
      <stop
         offset="0.51"
         stop-color="#5a566c"
         id="stop6-2" />
      <stop
         offset="0.59"
         stop-color="#6d6881"
         id="stop7-9" />
      <stop
         offset="0.67"
         stop-color="#87829e"
         id="stop8-1" />
      <stop
         offset="0.74"
         stop-color="#a9a2c3"
         id="stop9-2" />
      <stop
         offset="0.78"
         stop-color="#bcb5d9"
         id="stop10-7" />
    </radialGradient>
    <radialGradient
       id="a-3"
       cx="103.55"
       cy="103.55"
       fx="14.832241"
       fy="15.612816"
       r="196.89"
       gradientUnits="userSpaceOnUse">
      <stop
         offset="0"
         stop-color="#746b7f"
         id="stop1-6"
         style="stop-color:#7b758d;stop-opacity:1;" />
      <stop
         offset="0.2915017"
         stop-color="#4b475b"
         id="stop4-7"
         style="stop-color:#4c425d;stop-opacity:1;" />
      <stop
         offset="0.63472694"
         stop-color="#4b475b"
         id="stop13-5"
         style="stop-color:#75678f;stop-opacity:1;" />
      <stop
         offset="0.85167235"
         stop-color="#bcb5d9"
         id="stop10-3"
         style="stop-color:#aba0c4;stop-opacity:1;" />
    </radialGradient>
    <linearGradient
       id="b-5"
       x1="57.369335"
       y1="37.498016"
       x2="146.54068"
       y2="180.202"
       gradientUnits="userSpaceOnUse">
      <stop
         offset="0"
         stop-color="#448491"
         id="stop11-6"
         style="stop-color:#6fa1b7;stop-opacity:1;" />
      <stop
         offset="0.32887372"
         stop-color="#526a77"
         id="stop14-2"
         style="stop-color:#4e788a;stop-opacity:1;" />
      <stop
         offset="0.51335096"
         stop-color="#526a77"
         id="stop2-9"
         style="stop-color:#426c7f;stop-opacity:1;" />
      <stop
         offset="0.69782823"
         stop-color="#526a77"
         id="stop12-1"
         style="stop-color:#527d90;stop-opacity:1;" />
      <stop
         offset="1"
         stop-color="#94d1d6"
         id="stop19-2"
         style="stop-color:#7ca9be;stop-opacity:1;" />
    </linearGradient>
  </defs>
  <title
     id="title19">Artboard 1</title>
  <path
     style="stroke-width:0.949926;font-size:67.4159px;font-family:Alata;-inkscape-font-specification:'Alata, Normal';fill:#1f0b26;fill-opacity:1;stroke-linecap:round;stroke-linejoin:round"
     d="M 229.65843,149.54069 V 54.24755 h 22.00668 l 0.20757,17.439249 q 3.737,-8.512017 12.04142,-14.117497 8.51202,-5.813074 20.34578,-5.813074 15.36318,0 23.04477,6.435911 7.68158,6.22832 10.1729,17.854496 2.69892,11.626177 2.69892,27.612165 v 45.88189 h -22.4219 v -45.25906 q 0,-16.608818 -3.32178,-25.328458 -3.11416,-8.71964 -14.74033,-8.71964 -6.0207,0 -12.45661,3.736997 -6.43591,3.736966 -10.79575,10.795716 -4.35981,7.058748 -4.35981,17.439285 v 47.33516 z m 159.44482,2.07608 q -12.66423,0 -23.66757,-6.02069 -10.79572,-6.0207 -17.43924,-17.23166 -6.64354,-11.21096 -6.64354,-26.78173 0,-14.947931 5.60548,-26.158893 5.81307,-11.210962 16.1936,-17.43928 10.58813,-6.228289 25.12084,-6.228289 8.71964,0 15.77839,3.114129 7.26638,2.906567 12.04139,7.266371 4.98265,4.152213 6.64354,8.096804 l 0.41521,-15.985982 h 21.38387 v 95.29314 h -21.17624 l -0.41522,-16.81644 q -2.07611,4.56742 -7.05875,8.92723 -4.77505,4.35981 -11.62617,7.26637 -6.85116,2.69892 -15.15559,2.69892 z m 3.737,-18.68493 q 7.68159,0 13.9099,-3.52938 6.43592,-3.73696 10.17292,-10.38049 3.94458,-6.64354 3.94458,-15.77839 v -1.45327 q 0,-9.342478 -3.94458,-16.193605 -3.737,-7.058748 -10.17292,-10.795746 -6.22831,-3.94459 -13.9099,-3.94459 -13.90988,0 -20.96863,8.927233 -6.85115,8.927263 -6.85115,22.006708 0,13.28707 6.85115,22.2143 7.05875,8.92723 20.96863,8.92723 z m 78.26923,67.05815 V 54.24755 h 21.59149 v 17.646872 q 4.77503,-8.512017 13.28705,-14.32512 8.71963,-5.813074 22.42191,-5.813074 12.87186,0 23.04477,5.397858 10.1729,5.397859 15.98598,16.401228 6.0207,11.003338 6.0207,27.819786 0,15.36314 -6.22833,26.78172 -6.22828,11.21096 -16.60881,17.43926 -10.38051,6.02069 -23.25236,6.02069 -12.24901,0 -20.96862,-4.35981 -8.71965,-4.35981 -13.70229,-12.04139 v 64.77442 z m 51.07214,-67.26574 q 14.11753,0 20.96865,-8.92727 7.05875,-8.92722 7.05875,-21.79908 0,-13.494658 -7.05875,-22.214298 -6.85112,-8.71964 -20.96865,-8.71964 -7.47397,0 -13.90988,3.529374 -6.43591,3.529406 -10.38053,10.172909 -3.94459,6.643533 -3.94459,15.986015 v 1.45327 q 0,9.13485 3.94459,16.1936 3.94462,6.85112 10.38053,10.58812 6.43591,3.737 13.90988,3.737 z m 117.29997,18.89252 q -12.66423,0 -23.66757,-6.02069 -10.79575,-6.0207 -17.43928,-17.23166 -6.64353,-11.21096 -6.64353,-26.78173 0,-14.947931 5.60548,-26.158893 5.8131,-11.210962 16.1936,-17.43928 10.58813,-6.228289 25.12087,-6.228289 8.71961,0 15.77836,3.114129 7.26637,2.906567 12.04142,7.266371 4.98265,4.152213 6.64354,8.096804 l 0.41521,-15.985982 h 21.38387 v 95.29314 h -21.17627 l -0.41522,-16.81644 q -2.07611,4.56742 -7.05875,8.92723 -4.77502,4.35981 -11.62617,7.26637 -6.85114,2.69892 -15.15556,2.69892 z m 3.737,-18.68493 q 7.68156,0 13.90987,-3.52938 6.43591,-3.73696 10.17291,-10.38049 3.94459,-6.64354 3.94459,-15.77839 v -1.45327 q 0,-9.342478 -3.94459,-16.193605 -3.737,-7.058748 -10.17291,-10.795746 -6.22831,-3.94459 -13.90987,-3.94459 -13.90991,0 -20.96866,8.927233 -6.85115,8.927263 -6.85115,22.006708 0,13.28707 6.85115,22.2143 7.05875,8.92723 20.96866,8.92723 z m 78.26904,16.60885 V 54.24755 h 22.42193 v 18.684926 q 3.32175,-9.342479 10.58812,-15.155552 7.47396,-6.020696 17.23166,-6.020696 6.64353,0 9.13486,1.245646 l -3.11417,22.629515 q -1.86851,-1.245645 -8.09679,-1.245645 -5.19027,0 -11.21097,2.283698 -6.02069,2.28373 -10.38053,8.096803 -4.15218,5.60548 -4.15218,15.778385 v 48.99606 z m 74.53202,0 V 54.24755 h 23.25236 v 95.29314 z M 807.64583,36.393054 q -6.43591,0 -10.79572,-4.359804 -4.15221,-4.359836 -4.15221,-10.795748 0,-5.813103 4.15221,-9.965316 4.35981,-4.1521819 10.79572,-4.1521819 6.43594,0 10.58812,4.1521819 4.35984,4.152213 4.35984,9.965316 0,6.435912 -4.35984,10.795748 -4.15218,4.359804 -10.58812,4.359804 z"
     id="text1"
     aria-label="napari&#10;"
     transform="matrix(2.0600001,0,0,2.0600001,-1.0987631e-6,0)"
     inkscape:label="napari" />
  <g
     id="g22"
     transform="matrix(2.0600001,0,0,2.0600001,-1.0987631e-6,0)"
     style="stroke-width:0.485437"
     inkscape:label="logo">
    <rect
       class="b"
       x="5.333801e-07"
       y="3.5527137e-15"
       width="207.10001"
       height="207.10001"
       rx="47.084118"
       id="rect20-8"
       style="fill:#1f0b26;fill-opacity:1;stroke-width:1.07378"
       inkscape:label="outer-border" />
    <rect
       class="b"
       x="7.1199956"
       y="7.1200037"
       width="192.87"
       height="192.87"
       rx="40.057816"
       id="rect20"
       style="fill:url(#a-3);stroke-width:0.485437" />
    <g
       id="g32"
       transform="translate(-3.97146)"
       style="stroke-width:0.485437">
      <path
         class="a"
         d="M 113.3,188.39 C 105.13385,187.87904 97.294474,185.1065 90.06,179.43 83.80257,174.6342 78.578135,168.62405 74.7,161.76 69.863938,153.23489 65.883447,135.00919 58.39,123.87 53.956723,117.3475 47.466618,112.85815 41.61,107.76 36.341276,103.1305 29.408316,96.975635 25.51,86.75 20.070899,72.2968 25.364629,56.679938 30.7,46.2 39.581235,27.459928 60.011612,14.23427 80.19,19.78 c 6.623293,1.623772 12.542186,5.349832 16.87,10.62 4.56,5.64 6.4,12.73 7.89,22.34 1.32868,7.54009 1.10229,15.641087 4.22,22.73 2,4.2 5.82,6.65 8.33,8.27 6.54627,4.250824 16.16294,5.84073 28.93,4.9 6.94113,-0.804841 13.81247,-1.642201 20.68,0.15 14.33648,3.77191 19.47697,12.03733 22.59,25.67 1.07249,4.65199 3.85034,19.22617 0.09,32.1 -5.90028,19.26799 -22.00527,29.87139 -30.11,33.93 -19.6434,9.63269 -41.6221,8.32337 -46.38,7.9 z"
         id="path20"
         sodipodi:nodetypes="cccccccccccccccccc"
         style="fill:#1f0b26;fill-opacity:1" />
      <path
         class="c"
         d="m 113.98,180.77 c -7.12428,-0.28365 -13.71826,-3.16624 -19.35,-7.44 C 89.218811,169.16362 84.702318,163.94993 81.35,158 77.00092,150.30282 72.870645,131.68156 64.65,119.51 59.921381,112.42283 52.945893,107.56088 46.63,102.06 41.685598,97.728704 35.902904,92.576553 32.65,84.12 27.86575,71.91698 33.609421,57.382401 37.5,49.74 44.553113,34.718011 61.080095,22.4926 78.19,27.18 c 5.062108,1.183811 9.596819,3.993857 12.91,8 3,3.77 4.75,8.84 6.28,18.7 1.331988,8.324452 1.421328,17.094797 4.89,24.89 3,6.13 8,9.41 11.07,11.36 8.07351,5.215444 19.26316,7.206902 33.66,6.11 6.04785,-0.592962 12.0619,-1.675638 18.05,-0.09 11.68618,3.111388 14.65895,9.08614 17.15,20 0.8124,3.51921 3.50329,16.95377 0.2,28.25 -5.41353,17.53914 -20.81279,26.53804 -26.23,29.23 -18.03023,8.85411 -38.83148,7.43959 -42.19,7.14 z"
         id="path21"
         sodipodi:nodetypes="cccccccccccccccccc"
         style="fill:#ccb98f;fill-opacity:1" />
      <path
         class="d"
         d="m 76.59,33.19 c 3.801295,0.874747 7.205455,2.984764 9.68,6 2.23,2.75 3.62,7 5,15.73 1.365707,8.951448 1.677839,18.281765 5.43,26.65 3.73,7.7 10,11.77 13.29,13.88 11.16328,7.07332 24.61619,7.94449 37.47,7.09 7.67,-0.57 10.71,-1.72 15.95,-0.29 9.00827,2.21144 10.82611,7.08038 12.7,15.33 0.58265,2.51228 3.22398,15.08236 0.3,25.11 -4.56584,14.66608 -17.54654,22.68354 -23.04,25.4 -12.0038,5.8495 -27.72656,7.40788 -38.87,6.47 -5.94118,-0.21452 -11.42634,-2.60467 -16.1,-6.2 -4.75371,-3.64735 -8.720006,-8.21914 -11.66,-13.44 -4.114044,-7.40528 -8.225961,-26.17413 -16.97,-39 -4.949583,-7.55249 -12.288686,-12.79472 -19,-18.61 C 45.903355,93.041713 41.188954,88.792507 38.51,81.88 34.712681,71.691613 39.674334,59.241814 43.09,52.54 43.628514,51.389328 54.690056,28.397244 76.59,33.19 Z"
         id="path22"
         style="fill:url(#b-5)"
         sodipodi:nodetypes="cccccccccccccccccc" />
    </g>
  </g>
  <metadata
     id="metadata22">
    <rdf:RDF>
      <cc:Work
         rdf:about="">
        <dc:title>Artboard 1</dc:title>
      </cc:Work>
    </rdf:RDF>
  </metadata>
</svg>
