<?xml version="1.0" encoding="UTF-8" standalone="no"?>
<svg
   width="1024"
   height="1024"
   viewBox="0 0 1024 1024"
   version="1.1"
   id="svg22"
   sodipodi:docname="logo-pride.svg"
   inkscape:version="1.4.2 (ebf0e940d0, 2025-05-08)"
   inkscape:export-filename="logo.png"
   inkscape:export-xdpi="96"
   inkscape:export-ydpi="96"
   xml:space="preserve"
   xmlns:inkscape="http://www.inkscape.org/namespaces/inkscape"
   xmlns:sodipodi="http://sodipodi.sourceforge.net/DTD/sodipodi-0.dtd"
   xmlns:xlink="http://www.w3.org/1999/xlink"
   xmlns="http://www.w3.org/2000/svg"
   xmlns:svg="http://www.w3.org/2000/svg"
   xmlns:rdf="http://www.w3.org/1999/02/22-rdf-syntax-ns#"
   xmlns:cc="http://creativecommons.org/ns#"
   xmlns:dc="http://purl.org/dc/elements/1.1/"><sodipodi:namedview
     id="namedview22"
     pagecolor="#ffffff"
     bordercolor="#000000"
     borderopacity="0.25"
     inkscape:showpageshadow="2"
     inkscape:pageopacity="0.0"
     inkscape:pagecheckerboard="0"
     inkscape:deskcolor="#d1d1d1"
     showguides="true"
     inkscape:zoom="0.25"
     inkscape:cx="482"
     inkscape:cy="874"
     inkscape:window-width="2558"
     inkscape:window-height="1568"
     inkscape:window-x="0"
     inkscape:window-y="0"
     inkscape:window-maximized="0"
     inkscape:current-layer="g22" /><defs
     id="defs19"><linearGradient
       id="linearGradient94"
       inkscape:label="pride2"><stop
         style="stop-color:#fdd910;stop-opacity:1;"
         offset="0"
         id="stop84" /><stop
         style="stop-color:#fdd910;stop-opacity:1;"
         offset="0.33000001"
         id="stop85" /><stop
         style="stop-color:#ffffff;stop-opacity:1;"
         offset="0.33000001"
         id="stop86" /><stop
         style="stop-color:#ffffff;stop-opacity:1;"
         offset="0.47999999"
         id="stop87" /><stop
         style="stop-color:#f4b0c9;stop-opacity:1;"
         offset="0.47999999"
         id="stop88" /><stop
         style="stop-color:#f4b0c9;stop-opacity:1;"
         offset="0.64999998"
         id="stop89" /><stop
         style="stop-color:#7ccde6;stop-opacity:1;"
         offset="0.64999998"
         id="stop90" /><stop
         style="stop-color:#7ccde6;stop-opacity:1;"
         offset="0.81"
         id="stop91" /><stop
         style="stop-color:#95540e;stop-opacity:1;"
         offset="0.81"
         id="stop92" /><stop
         style="stop-color:#95540e;stop-opacity:1;"
         offset="0.95712095"
         id="stop93" /><stop
         style="stop-color:#000000;stop-opacity:1;"
         offset="0.95712095"
         id="stop94" /></linearGradient><linearGradient
       id="linearGradient18-1"
       inkscape:label="pride2"><stop
         style="stop-color:#fdd910;stop-opacity:1;"
         offset="0"
         id="stop73" /><stop
         style="stop-color:#fdd910;stop-opacity:1;"
         offset="0.30158293"
         id="stop74" /><stop
         style="stop-color:#ffffff;stop-opacity:1;"
         offset="0.30158293"
         id="stop75" /><stop
         style="stop-color:#ffffff;stop-opacity:1;"
         offset="0.44557685"
         id="stop76" /><stop
         style="stop-color:#f4b0c9;stop-opacity:1;"
         offset="0.44557685"
         id="stop77" /><stop
         style="stop-color:#f4b0c9;stop-opacity:1;"
         offset="0.60069048"
         id="stop78" /><stop
         style="stop-color:#7ccde6;stop-opacity:1;"
         offset="0.60069048"
         id="stop79" /><stop
         style="stop-color:#7ccde6;stop-opacity:1;"
         offset="0.75"
         id="stop80" /><stop
         style="stop-color:#95540e;stop-opacity:1;"
         offset="0.75"
         id="stop81" /><stop
         style="stop-color:#95540e;stop-opacity:1;"
         offset="0.89586526"
         id="stop82" /><stop
         style="stop-color:#000000;stop-opacity:1;"
         offset="0.89586526"
         id="stop83" /></linearGradient><linearGradient
       id="linearGradient18-2"
       inkscape:label="pride2"><stop
         style="stop-color:#fdd910;stop-opacity:1;"
         offset="0"
         id="stop52" /><stop
         style="stop-color:#fdd910;stop-opacity:1;"
         offset="0.30158293"
         id="stop53" /><stop
         style="stop-color:#ffffff;stop-opacity:1;"
         offset="0.30158293"
         id="stop54" /><stop
         style="stop-color:#ffffff;stop-opacity:1;"
         offset="0.44557685"
         id="stop55" /><stop
         style="stop-color:#f4b0c9;stop-opacity:1;"
         offset="0.44557685"
         id="stop56" /><stop
         style="stop-color:#f4b0c9;stop-opacity:1;"
         offset="0.60069048"
         id="stop57" /><stop
         style="stop-color:#7ccde6;stop-opacity:1;"
         offset="0.60069048"
         id="stop58" /><stop
         style="stop-color:#7ccde6;stop-opacity:1;"
         offset="0.75"
         id="stop59" /><stop
         style="stop-color:#95540e;stop-opacity:1;"
         offset="0.75"
         id="stop60" /><stop
         style="stop-color:#95540e;stop-opacity:1;"
         offset="0.89586526"
         id="stop72" /><stop
         style="stop-color:#000000;stop-opacity:1;"
         offset="0.89586526"
         id="stop61" /></linearGradient><linearGradient
       id="b"
       x1="57.369335"
       y1="37.498016"
       x2="146.54068"
       y2="180.202"
       gradientUnits="userSpaceOnUse"
       gradientTransform="translate(0,1.6575158)"><stop
         offset="0"
         stop-color="#448491"
         id="stop7"
         style="stop-color:#6fa1b7;stop-opacity:1;" /><stop
         offset="0.32887372"
         stop-color="#526a77"
         id="stop8"
         style="stop-color:#4e788a;stop-opacity:1;" /><stop
         offset="0.51335096"
         stop-color="#526a77"
         id="stop9"
         style="stop-color:#426c7f;stop-opacity:1;" /><stop
         offset="0.69782823"
         stop-color="#526a77"
         id="stop10"
         style="stop-color:#527d90;stop-opacity:1;" /><stop
         offset="1"
         stop-color="#94d1d6"
         id="stop11"
         style="stop-color:#7ca9be;stop-opacity:1;" /></linearGradient><linearGradient
       id="b-1"
       x1="57.369335"
       y1="37.498016"
       x2="146.54068"
       y2="180.202"
       gradientUnits="userSpaceOnUse"
       inkscape:label="pride"><stop
         offset="0"
         stop-color="#448491"
         id="stop1"
         style="stop-color:#e31a0e;stop-opacity:1;" /><stop
         offset="0.2"
         stop-color="#526a77"
         id="stop3"
         style="stop-color:#f28a10;stop-opacity:1;" /><stop
         offset="0.40000001"
         stop-color="#526a77"
         id="stop4"
         style="stop-color:#f0e61f;stop-opacity:1;" /><stop
         offset="0.60000002"
         stop-color="#526a77"
         id="stop5"
         style="stop-color:#79b925;stop-opacity:1;" /><stop
         offset="0.80000001"
         stop-color="#526a77"
         id="stop12"
         style="stop-color:#2857a6;stop-opacity:1;" /><stop
         offset="1"
         stop-color="#526a77"
         id="stop13"
         style="stop-color:#6d1e81;stop-opacity:1;" /></linearGradient><style
       id="style1">
      .a {
        fill: #06283d;
      }

      .b {
        fill: url(#a);
      }

      .c {
        fill: #a59678;
      }

      .d {
        fill: url(#b);
      }
    </style><linearGradient
       inkscape:collect="always"
       xlink:href="#b-1"
       id="linearGradient1"
       x1="156.07726"
       y1="22.677824"
       x2="51.032738"
       y2="184.43219"
       gradientUnits="userSpaceOnUse" /><linearGradient
       id="b-7"
       x1="57.369335"
       y1="37.498016"
       x2="146.54068"
       y2="180.202"
       gradientUnits="userSpaceOnUse"
       gradientTransform="translate(-5.8613477,-0.42467062)"><stop
         offset="0"
         stop-color="#448491"
         id="stop7-5"
         style="stop-color:#6fa1b7;stop-opacity:1;" /><stop
         offset="0.32887372"
         stop-color="#526a77"
         id="stop8-3"
         style="stop-color:#4e788a;stop-opacity:1;" /><stop
         offset="0.51335096"
         stop-color="#526a77"
         id="stop9-5"
         style="stop-color:#426c7f;stop-opacity:1;" /><stop
         offset="0.69782823"
         stop-color="#526a77"
         id="stop10-6"
         style="stop-color:#527d90;stop-opacity:1;" /><stop
         offset="1"
         stop-color="#94d1d6"
         id="stop11-2"
         style="stop-color:#7ca9be;stop-opacity:1;" /></linearGradient></defs><title
     id="title19">Artboard 1</title><metadata
     id="metadata13"><rdf:RDF><cc:Work
         rdf:about=""><dc:title>Artboard 1</dc:title></cc:Work></rdf:RDF></metadata><g
     inkscape:groupmode="layer"
     id="layer1"
     inkscape:label="maingroup"
     transform="translate(100,100)"><g
       id="g22"
       transform="matrix(3.9787541,0,0,3.9787541,-1.8541767e-6,-1.8541767e-6)"
       inkscape:label="logo"
       style="stroke-width:0.202246"><rect
         class="b"
         x="4.6601943e-07"
         y="4.6601943e-07"
         width="207.10001"
         height="207.10001"
         rx="47.084118"
         id="rect20-8"
         style="fill:#000000;fill-opacity:1;stroke-width:0.217168"
         inkscape:label="outer-border" /><rect
         class="b"
         x="7.1199951"
         y="7.1199999"
         width="192.87"
         height="192.87"
         rx="40.057816"
         id="rect20"
         style="fill:url(#linearGradient1);stroke-width:0.202246"
         inkscape:label="background" /><path
         d="m 156.4354,95.143046 8.87673,54.895584 -85.645329,13.84944 c 2.985296,4.20363 6.584636,7.94923 10.685663,11.10684 5.766167,4.37577 12.517436,7.3267 19.811776,7.61712 3.43869,0.30673 24.7366,1.75515 43.19721,-7.31031 5.54651,-2.75621 21.31327,-11.96973 26.85602,-29.92752 3.38213,-11.56587 0.62709,-25.32142 -0.2047,-28.92463 -2.55051,-11.17437 -5.59445,-17.291756 -17.55957,-20.477413 -2.00306,-0.530408 -4.0088,-0.769215 -6.0178,-0.829111 z"
         style="stroke-width:8.56588;stroke-linecap:round;stroke-linejoin:round"
         id="path236" /><path
         d="m 139.4428,96.313324 6.41787,39.688836 -73.794788,11.93301 c 1.656067,4.62711 3.159469,8.65525 4.689459,11.36309 0.891685,1.58262 1.863719,3.11447 2.91146,4.58981 L 165.31213,150.03863 156.4354,95.143046 c -4.14023,-0.123437 -8.29352,0.512626 -12.46268,0.921398 -1.54596,0.117786 -3.0561,0.200817 -4.52992,0.24888 z"
         style="fill:#95540e;stroke-width:8.56588;stroke-linecap:round;stroke-linejoin:round"
         id="path235" /><path
         d="m 122.03196,94.896129 4.37725,27.069561 -60.473054,9.77899 c 2.37212,5.48908 4.339869,11.18957 6.129726,16.19049 L 145.86067,136.00216 139.4428,96.313324 c -6.50126,0.212011 -12.30176,-0.255663 -17.41084,-1.417195 z"
         style="fill:#7ccde6;stroke-width:8.56588;stroke-linecap:round;stroke-linejoin:round"
         id="path234" /><path
         d="m 103.26332,85.081793 3.69443,22.847917 -50.227718,8.12224 c 1.042725,1.21296 2.02447,2.48605 2.926677,3.83826 2.399249,3.55235 4.458596,7.64103 6.279447,11.85447 l 60.473054,-9.77899 -4.37725,-27.069561 c -4.77621,-1.085855 -8.948,-2.778103 -12.52306,-5.08757 -1.71229,-1.087618 -4.01094,-2.579342 -6.24558,-4.726766 z"
         style="fill:#f4b0c9;stroke-width:8.56588;stroke-linecap:round;stroke-linejoin:round"
         id="path233" /><path
         d="m 76.573712,26.285121 10.93258,67.608122 -46.918641,7.587177 c 0.207634,0.18254 0.413964,0.3633 0.619011,0.54292 5.261595,4.58263 10.970544,8.7325 15.52337,14.02861 l 50.227718,-8.12224 -3.69443,-22.847917 C 101.39581,83.28716 99.573135,81.034754 98.174774,78.177445 94.623306,70.196167 94.531983,61.216116 93.168201,52.692964 91.60168,42.59761 89.809659,37.406824 86.738051,33.546836 84.027615,30.269504 80.518621,27.774158 76.573712,26.285121 Z"
         style="fill:#ffffff;stroke-width:8.56588;stroke-linecap:round;stroke-linejoin:round"
         id="path232" /><path
         d="M 76.573712,26.285121 C 75.581342,25.910543 74.56164,25.599489 73.519894,25.355869 71.330104,24.755958 69.149835,24.42673 66.996476,24.33973 51.922971,23.73074 38.177454,34.996645 31.85867,48.454632 c -3.983446,7.824821 -9.864277,22.706339 -4.965829,35.200639 3.19565,8.307707 8.776149,13.500754 13.69481,17.825149 l 46.918641,-7.587177 z"
         style="fill:#fdd910;stroke-width:8.56588;stroke-linecap:round;stroke-linejoin:round"
         id="path231" /><circle
         style="display:inline;fill:none;stroke:#66308c;stroke-width:5.78072;stroke-linecap:round;stroke-linejoin:round;stroke-dasharray:none;stroke-opacity:1"
         id="path16"
         cx="55.899204"
         cy="70.202034"
         r="16.922167" /><path
         id="path225"
         style="display:inline;fill:#000000;fill-opacity:1;stroke-width:0.202246"
         class="a"
         d="M 64.919526 18.553135 C 48.784901 19.387958 33.944397 30.973672 26.728393 46.19998 C 21.393022 56.679918 16.099617 72.296633 21.538719 86.749833 C 25.437034 96.975468 32.369668 103.13036 37.638392 107.75986 C 43.49501 112.85801 49.98516 117.34735 54.418437 123.86985 C 61.911885 135.00904 65.89264 153.23495 70.728702 161.76006 C 74.606837 168.62411 79.831176 174.63429 86.088606 179.43009 C 93.323079 185.10659 101.16259 187.87883 109.32874 188.38979 C 114.08664 188.81316 136.06499 190.12261 155.70839 180.48992 C 163.81312 176.43131 179.91823 165.82818 185.81851 146.56019 C 189.57885 133.68636 186.80117 119.11199 185.72868 114.46 C 182.61565 100.82733 177.47496 92.561876 163.13848 88.789966 C 156.27095 86.997765 149.39945 87.835403 142.45832 88.640244 C 129.69126 89.580974 120.07457 87.991019 113.5283 83.740195 C 111.0183 82.120195 107.19841 79.670194 105.19841 75.470194 C 102.0807 68.381281 102.30741 60.280179 100.97873 52.740089 C 99.488732 43.130089 97.648677 36.04024 93.088677 30.40024 C 88.760862 25.130072 82.841603 21.403637 76.218309 19.779865 C 72.434861 18.740041 68.642901 18.360483 64.919526 18.553135 z M 67.847185 26.187434 C 69.950342 26.272405 72.07969 26.594086 74.218429 27.180011 C 79.280537 28.363822 83.815618 31.173879 87.128799 35.180022 C 90.128799 38.950022 91.878736 44.019932 93.408736 53.879932 C 94.740724 62.204384 94.829806 70.974738 98.298478 78.769948 C 101.29848 84.899938 106.2985 88.180081 109.36851 90.130091 C 117.44202 95.345531 128.6319 97.337082 143.02874 96.240182 C 149.07659 95.647212 155.09061 94.564218 161.07871 96.149858 C 172.76489 99.261248 175.73784 105.23627 178.22889 116.15013 C 179.04129 119.66934 181.73197 133.10405 178.42868 144.40028 C 173.01515 161.93942 157.61575 170.93828 152.19854 173.63024 C 134.16831 182.48435 113.36714 181.0698 110.00862 180.77022 C 102.88433 180.48657 96.290518 177.60407 90.658778 173.33031 C 85.247589 169.16393 80.731087 163.94979 77.378769 157.99986 C 73.029689 150.30268 68.899384 131.68182 60.678739 119.51026 C 55.95012 112.42309 48.974603 107.56104 42.65871 102.06016 C 37.714308 97.728862 31.931598 92.576692 28.678694 84.120142 C 23.894444 71.917122 29.638094 57.38267 33.528673 49.740269 C 39.700147 36.596029 53.125089 25.592641 67.847185 26.187434 z " /></g></g></svg>
