<?xml version="1.0" encoding="UTF-8" standalone="no"?>
<svg
   width="3272.8987"
   height="824"
   viewBox="0 0 3272.8987 824"
   version="1.1"
   id="svg22"
   sodipodi:docname="logo-text-side.svg"
   inkscape:export-filename="logo-text.png"
   inkscape:export-xdpi="96"
   inkscape:export-ydpi="96"
   inkscape:version="1.4.2 (ebf0e940d0, 2025-05-08)"
   xmlns:inkscape="http://www.inkscape.org/namespaces/inkscape"
   xmlns:sodipodi="http://sodipodi.sourceforge.net/DTD/sodipodi-0.dtd"
   xmlns="http://www.w3.org/2000/svg"
   xmlns:svg="http://www.w3.org/2000/svg"
   xmlns:rdf="http://www.w3.org/1999/02/22-rdf-syntax-ns#"
   xmlns:cc="http://creativecommons.org/ns#"
   xmlns:dc="http://purl.org/dc/elements/1.1/">
  <sodipodi:namedview
     id="namedview22"
     pagecolor="#505050"
     bordercolor="#eeeeee"
     borderopacity="1"
     inkscape:showpageshadow="0"
     inkscape:pageopacity="0"
     inkscape:pagecheckerboard="0"
     inkscape:deskcolor="#505050"
     showgrid="false"
     showguides="true"
     inkscape:zoom="0.099823594"
     inkscape:cx="1502.6508"
     inkscape:cy="4172.3603"
     inkscape:window-width="2558"
     inkscape:window-height="1568"
     inkscape:window-x="0"
     inkscape:window-y="0"
     inkscape:window-maximized="0"
     inkscape:current-layer="g22">
    <inkscape:grid
       id="grid22"
       units="px"
       originx="8.1747476e-06"
       originy="0"
       spacingx="0.51775001"
       spacingy="0.51775"
       empcolor="#0099e5"
       empopacity="0.30196078"
       color="#0099e5"
       opacity="0.14902"
       empspacing="5"
       enabled="true"
       visible="false" />
  </sodipodi:namedview>
  <defs
     id="defs19">
    <style
       id="style1">
      .a {
        fill: #26283d;
      }

      .b {
        fill: url(#a);
      }

      .c {
        fill: #a59678;
      }

      .d {
        fill: url(#b);
      }
    </style>
    <radialGradient
       id="a"
       cx="103.55"
       cy="103.55"
       fx="14.832241"
       fy="15.612816"
       r="196.89"
       gradientUnits="userSpaceOnUse"
       gradientTransform="translate(-0.00499744)">
      <stop
         offset="0"
         stop-color="#746b7f"
         id="stop1" />
      <stop
         offset="0.12"
         stop-color="#615b6f"
         id="stop2" />
      <stop
         offset="0.26"
         stop-color="#514c60"
         id="stop3" />
      <stop
         offset="0.37"
         stop-color="#4b475b"
         id="stop4" />
      <stop
         offset="0.44"
         stop-color="#4f4b5f"
         id="stop5" />
      <stop
         offset="0.51"
         stop-color="#5a566c"
         id="stop6" />
      <stop
         offset="0.59"
         stop-color="#6d6881"
         id="stop7" />
      <stop
         offset="0.67"
         stop-color="#87829e"
         id="stop8" />
      <stop
         offset="0.74"
         stop-color="#a9a2c3"
         id="stop9" />
      <stop
         offset="0.78"
         stop-color="#bcb5d9"
         id="stop10" />
    </radialGradient>
    <linearGradient
       id="b"
       x1="38.310001"
       y1="53.82"
       x2="165.60001"
       y2="163.88"
       gradientUnits="userSpaceOnUse">
      <stop
         offset="0.05"
         stop-color="#448491"
         id="stop11" />
      <stop
         offset="0.15"
         stop-color="#4a7986"
         id="stop12" />
      <stop
         offset="0.33"
         stop-color="#506e7b"
         id="stop13" />
      <stop
         offset="0.52"
         stop-color="#526a77"
         id="stop14" />
      <stop
         offset="0.6"
         stop-color="#56707c"
         id="stop15" />
      <stop
         offset="0.7"
         stop-color="#607f8b"
         id="stop16" />
      <stop
         offset="0.82"
         stop-color="#7099a3"
         id="stop17" />
      <stop
         offset="0.94"
         stop-color="#87bdc4"
         id="stop18" />
      <stop
         offset="1"
         stop-color="#94d1d6"
         id="stop19" />
    </linearGradient>
    <radialGradient
       id="a-6"
       cx="103.55"
       cy="103.55"
       fx="14.832241"
       fy="15.612816"
       r="196.89"
       gradientUnits="userSpaceOnUse"
       gradientTransform="translate(-3.2384032e-6)">
      <stop
         offset="0"
         stop-color="#746b7f"
         id="stop1-7" />
      <stop
         offset="0.12"
         stop-color="#615b6f"
         id="stop2-5" />
      <stop
         offset="0.26"
         stop-color="#514c60"
         id="stop3-3" />
      <stop
         offset="0.37"
         stop-color="#4b475b"
         id="stop4-5" />
      <stop
         offset="0.44"
         stop-color="#4f4b5f"
         id="stop5-6" />
      <stop
         offset="0.51"
         stop-color="#5a566c"
         id="stop6-2" />
      <stop
         offset="0.59"
         stop-color="#6d6881"
         id="stop7-9" />
      <stop
         offset="0.67"
         stop-color="#87829e"
         id="stop8-1" />
      <stop
         offset="0.74"
         stop-color="#a9a2c3"
         id="stop9-2" />
      <stop
         offset="0.78"
         stop-color="#bcb5d9"
         id="stop10-7" />
    </radialGradient>
    <radialGradient
       id="a-3"
       cx="103.55"
       cy="103.55"
       fx="14.832241"
       fy="15.612816"
       r="196.89"
       gradientUnits="userSpaceOnUse">
      <stop
         offset="0"
         stop-color="#746b7f"
         id="stop1-6"
         style="stop-color:#7b758d;stop-opacity:1;" />
      <stop
         offset="0.2915017"
         stop-color="#4b475b"
         id="stop4-7"
         style="stop-color:#4c425d;stop-opacity:1;" />
      <stop
         offset="0.63472694"
         stop-color="#4b475b"
         id="stop13-5"
         style="stop-color:#75678f;stop-opacity:1;" />
      <stop
         offset="0.85167235"
         stop-color="#bcb5d9"
         id="stop10-3"
         style="stop-color:#aba0c4;stop-opacity:1;" />
    </radialGradient>
    <linearGradient
       id="b-5"
       x1="57.369335"
       y1="37.498016"
       x2="146.54068"
       y2="180.202"
       gradientUnits="userSpaceOnUse">
      <stop
         offset="0"
         stop-color="#448491"
         id="stop11-6"
         style="stop-color:#6fa1b7;stop-opacity:1;" />
      <stop
         offset="0.32887372"
         stop-color="#526a77"
         id="stop14-2"
         style="stop-color:#4e788a;stop-opacity:1;" />
      <stop
         offset="0.51335096"
         stop-color="#526a77"
         id="stop2-9"
         style="stop-color:#426c7f;stop-opacity:1;" />
      <stop
         offset="0.69782823"
         stop-color="#526a77"
         id="stop12-1"
         style="stop-color:#527d90;stop-opacity:1;" />
      <stop
         offset="1"
         stop-color="#94d1d6"
         id="stop19-2"
         style="stop-color:#7ca9be;stop-opacity:1;" />
    </linearGradient>
  </defs>
  <title
     id="title19">Artboard 1</title>
  <path
     style="font-size:67.4159px;font-family:Alata;-inkscape-font-specification:'Alata, Normal';fill:#1f0b26;fill-opacity:1;stroke-width:1.95685;stroke-linecap:round;stroke-linejoin:round"
     d="m 913.75449,594.98568 v -379.148 h 87.55921 l 0.8258,69.38649 q 14.8686,-33.86723 47.9099,-56.17006 33.8672,-23.12879 80.9508,-23.12879 61.1264,0 91.6895,25.60691 30.5631,24.78095 40.4755,71.03865 10.7383,46.25771 10.7383,109.86203 v 182.55277 h -89.2112 V 414.91099 q 0,-66.0824 -13.2165,-100.77571 -12.3905,-34.69331 -58.6482,-34.69331 -23.9549,0 -49.5618,14.8686 -25.6069,14.86847 -42.9536,42.9535 -17.3466,28.08502 -17.3466,69.38663 v 188.33498 z m 634.39181,8.26021 q -50.3879,0 -94.1675,-23.95485 -42.9535,-23.95488 -69.3864,-68.56054 -26.433,-44.60566 -26.433,-106.55793 0,-59.47414 22.3028,-104.07981 23.1288,-44.60566 64.4303,-69.38661 42.1276,-24.78083 99.9497,-24.78083 34.6933,0 62.7783,12.39035 28.9112,11.56452 47.9098,28.91111 19.8247,16.52064 26.433,32.21519 l 1.652,-63.60429 h 85.0812 v 379.148 h -84.2551 l -1.6521,-66.90849 q -8.2603,18.17265 -28.085,35.51926 -18.9987,17.34661 -46.2577,28.9111 -27.259,10.73834 -60.3003,10.73834 z m 14.8686,-74.34275 q 30.5631,0 55.344,-14.04253 25.607,-14.86845 40.4756,-41.30142 15.6945,-26.43302 15.6945,-62.77834 v -5.78221 q 0,-37.17142 -15.6945,-64.43037 -14.8686,-28.08503 -40.4756,-42.95363 -24.7809,-15.69455 -55.344,-15.69455 -55.344,0 -83.4291,35.51927 -27.259,35.51938 -27.259,87.55928 0,52.86599 27.259,88.38525 28.0851,35.51925 83.4291,35.51925 z m 311.414,266.80791 V 215.83768 h 85.9073 v 70.21257 q 18.9986,-33.86723 52.8659,-56.99614 34.6932,-23.12879 89.2112,-23.12879 51.214,0 91.6895,21.47675 40.4755,21.47676 63.6043,65.25646 23.9549,43.77958 23.9549,110.6881 0,61.12616 -24.781,106.55788 -24.7808,44.60566 -66.0824,69.38653 -41.3015,23.95485 -92.5154,23.95485 -48.7358,0 -83.429,-17.34661 -34.6933,-17.34662 -54.518,-47.90974 v 257.72151 z m 203.2035,-267.63386 q 56.1702,0 83.4291,-35.51941 28.0851,-35.51922 28.0851,-86.73319 0,-53.69193 -28.0851,-88.38523 -27.2589,-34.69331 -83.4291,-34.69331 -29.7371,0 -55.344,14.04251 -25.6069,14.04264 -41.3016,40.47551 -15.6945,26.43299 -15.6945,63.60443 v 5.7822 q 0,36.34533 15.6945,64.43036 15.6947,27.25892 41.3016,42.12753 25.6069,14.8686 55.344,14.8686 z m 466.7078,75.1687 q -50.3879,0 -94.1675,-23.95485 -42.9536,-23.95488 -69.3866,-68.56054 -26.4329,-44.60566 -26.4329,-106.55793 0,-59.47414 22.3028,-104.07981 23.1289,-44.60566 64.4303,-69.38661 42.1276,-24.78083 99.9498,-24.78083 34.6932,0 62.7782,12.39035 28.9111,11.56452 47.9099,28.91111 19.8247,16.52064 26.433,32.21519 l 1.652,-63.60429 h 85.0812 v 379.148 h -84.2552 l -1.6521,-66.90849 q -8.2603,18.17265 -28.085,35.51926 -18.9986,17.34661 -46.2577,28.9111 -27.259,10.73834 -60.3002,10.73834 z m 14.8686,-74.34275 q 30.563,0 55.3439,-14.04253 25.607,-14.86845 40.4756,-41.30142 15.6945,-26.43302 15.6945,-62.77834 v -5.78221 q 0,-37.17142 -15.6945,-64.43037 -14.8686,-28.08503 -40.4756,-42.95363 -24.7809,-15.69455 -55.3439,-15.69455 -55.3441,0 -83.4292,35.51927 -27.259,35.51938 -27.259,87.55928 0,52.86599 27.259,88.38525 28.0851,35.51925 83.4292,35.51925 z m 311.4133,66.08254 v -379.148 h 89.2113 v 74.34273 q 13.2165,-37.17143 42.1276,-60.30022 29.737,-23.95487 68.5605,-23.95487 26.433,0 36.3454,4.95612 l -12.3905,90.03728 q -7.4344,-4.95611 -32.2152,-4.95611 -20.6508,0 -44.6057,9.08627 -23.9548,9.0864 -41.3016,32.21519 -16.5205,22.30283 -16.5205,62.77832 v 194.94329 z m 296.5446,0 v -379.148 h 92.5154 v 379.148 z m 46.2577,-450.18666 q -25.6069,0 -42.9535,-17.34659 -16.5206,-17.34671 -16.5206,-42.953625 0,-23.12891 16.5206,-39.649545 17.3466,-16.520512 42.9535,-16.520512 25.607,0 42.1275,16.520512 17.3468,16.520635 17.3468,39.649545 0,25.606915 -17.3468,42.953625 -16.5205,17.34659 -42.1275,17.34659 z"
     id="text1"
     aria-label="napari&#10;"
     inkscape:label="napari" />
  <g
     id="g22"
     transform="matrix(3.9787544,0,0,3.9787544,-2.1221885e-6,0)"
     style="stroke-width:0.251335"
     inkscape:label="logo">
    <rect
       class="b"
       x="5.333801e-07"
       y="3.5527137e-15"
       width="207.10001"
       height="207.10001"
       rx="47.084118"
       id="rect20-8"
       style="fill:#1f0b26;fill-opacity:1;stroke-width:0.55595"
       inkscape:label="outer-border" />
    <rect
       class="b"
       x="7.1199956"
       y="7.1200037"
       width="192.87"
       height="192.87"
       rx="40.057816"
       id="rect20"
       style="fill:url(#a-3);stroke-width:0.251335"
       inkscape:label="background" />
    <g
       id="g32"
       transform="translate(-3.97146)"
       style="stroke-width:0.251335"
       inkscape:label="content">
      <path
         class="a"
         d="M 113.3,188.39 C 105.13385,187.87904 97.294474,185.1065 90.06,179.43 83.80257,174.6342 78.578135,168.62405 74.7,161.76 69.863938,153.23489 65.883447,135.00919 58.39,123.87 53.956723,117.3475 47.466618,112.85815 41.61,107.76 36.341276,103.1305 29.408316,96.975635 25.51,86.75 20.070899,72.2968 25.364629,56.679938 30.7,46.2 39.581235,27.459928 60.011612,14.23427 80.19,19.78 c 6.623293,1.623772 12.542186,5.349832 16.87,10.62 4.56,5.64 6.4,12.73 7.89,22.34 1.32868,7.54009 1.10229,15.641087 4.22,22.73 2,4.2 5.82,6.65 8.33,8.27 6.54627,4.250824 16.16294,5.84073 28.93,4.9 6.94113,-0.804841 13.81247,-1.642201 20.68,0.15 14.33648,3.77191 19.47697,12.03733 22.59,25.67 1.07249,4.65199 3.85034,19.22617 0.09,32.1 -5.90028,19.26799 -22.00527,29.87139 -30.11,33.93 -19.6434,9.63269 -41.6221,8.32337 -46.38,7.9 z"
         id="path20"
         sodipodi:nodetypes="cccccccccccccccccc"
         style="fill:#1f0b26;fill-opacity:1;stroke-width:0.251335" />
      <path
         class="c"
         d="m 113.98,180.77 c -7.12428,-0.28365 -13.71826,-3.16624 -19.35,-7.44 C 89.218811,169.16362 84.702318,163.94993 81.35,158 77.00092,150.30282 72.870645,131.68156 64.65,119.51 59.921381,112.42283 52.945893,107.56088 46.63,102.06 41.685598,97.728704 35.902904,92.576553 32.65,84.12 27.86575,71.91698 33.609421,57.382401 37.5,49.74 44.553113,34.718011 61.080095,22.4926 78.19,27.18 c 5.062108,1.183811 9.596819,3.993857 12.91,8 3,3.77 4.75,8.84 6.28,18.7 1.331988,8.324452 1.421328,17.094797 4.89,24.89 3,6.13 8,9.41 11.07,11.36 8.07351,5.215444 19.26316,7.206902 33.66,6.11 6.04785,-0.592962 12.0619,-1.675638 18.05,-0.09 11.68618,3.111388 14.65895,9.08614 17.15,20 0.8124,3.51921 3.50329,16.95377 0.2,28.25 -5.41353,17.53914 -20.81279,26.53804 -26.23,29.23 -18.03023,8.85411 -38.83148,7.43959 -42.19,7.14 z"
         id="path21"
         sodipodi:nodetypes="cccccccccccccccccc"
         style="fill:#ccb98f;fill-opacity:1;stroke-width:0.251335" />
      <path
         class="d"
         d="m 76.59,33.19 c 3.801295,0.874747 7.205455,2.984764 9.68,6 2.23,2.75 3.62,7 5,15.73 1.365707,8.951448 1.677839,18.281765 5.43,26.65 3.73,7.7 10,11.77 13.29,13.88 11.16328,7.07332 24.61619,7.94449 37.47,7.09 7.67,-0.57 10.71,-1.72 15.95,-0.29 9.00827,2.21144 10.82611,7.08038 12.7,15.33 0.58265,2.51228 3.22398,15.08236 0.3,25.11 -4.56584,14.66608 -17.54654,22.68354 -23.04,25.4 -12.0038,5.8495 -27.72656,7.40788 -38.87,6.47 -5.94118,-0.21452 -11.42634,-2.60467 -16.1,-6.2 -4.75371,-3.64735 -8.720006,-8.21914 -11.66,-13.44 -4.114044,-7.40528 -8.225961,-26.17413 -16.97,-39 -4.949583,-7.55249 -12.288686,-12.79472 -19,-18.61 C 45.903355,93.041713 41.188954,88.792507 38.51,81.88 34.712681,71.691613 39.674334,59.241814 43.09,52.54 43.628514,51.389328 54.690056,28.397244 76.59,33.19 Z"
         id="path22"
         style="fill:url(#b-5);stroke-width:0.251335"
         sodipodi:nodetypes="cccccccccccccccccc" />
    </g>
  </g>
  <metadata
     id="metadata22">
    <rdf:RDF>
      <cc:Work
         rdf:about="">
        <dc:title>Artboard 1</dc:title>
      </cc:Work>
    </rdf:RDF>
  </metadata>
</svg>
