<?xml version="1.0" encoding="UTF-8" standalone="no"?>
<svg
   width="3428.1602"
   height="824"
   viewBox="0 0 3428.1602 824"
   version="1.1"
   id="svg22"
   sodipodi:docname="text-side.svg"
   inkscape:version="1.4.2 (ebf0e940d0, 2025-05-08)"
   inkscape:export-filename="logo.png"
   inkscape:export-xdpi="96"
   inkscape:export-ydpi="96"
   xmlns:inkscape="http://www.inkscape.org/namespaces/inkscape"
   xmlns:sodipodi="http://sodipodi.sourceforge.net/DTD/sodipodi-0.dtd"
   xmlns="http://www.w3.org/2000/svg"
   xmlns:svg="http://www.w3.org/2000/svg"
   xmlns:rdf="http://www.w3.org/1999/02/22-rdf-syntax-ns#"
   xmlns:cc="http://creativecommons.org/ns#"
   xmlns:dc="http://purl.org/dc/elements/1.1/">
  <sodipodi:namedview
     id="namedview22"
     pagecolor="#ffffff"
     bordercolor="#000000"
     borderopacity="0.25"
     inkscape:showpageshadow="2"
     inkscape:pageopacity="0.0"
     inkscape:pagecheckerboard="false"
     inkscape:deskcolor="#d1d1d1"
     showguides="true"
     inkscape:zoom="0.22627418"
     inkscape:cx="1241.8562"
     inkscape:cy="1465.0368"
     inkscape:window-width="2558"
     inkscape:window-height="1408"
     inkscape:window-x="0"
     inkscape:window-y="0"
     inkscape:window-maximized="0"
     inkscape:current-layer="svg22" />
  <defs
     id="defs19" />
  <title
     id="title19">Artboard 1</title>
  <metadata
     id="metadata13">
    <rdf:RDF>
      <cc:Work
         rdf:about="">
        <dc:title>Artboard 1</dc:title>
      </cc:Work>
    </rdf:RDF>
  </metadata>
  <path
     style="font-size:67.4159px;font-family:Alata;-inkscape-font-specification:'Alata, Normal';fill:#000000;fill-opacity:1;stroke-width:1.95685;stroke-linecap:round;stroke-linejoin:round"
     d="M 1074,595.40984 V 217.06283 h 87.3744 l 0.8239,69.2399 q 14.8372,-33.79567 47.8087,-56.05139 33.7957,-23.07994 80.7797,-23.07994 60.9973,0 91.4959,25.55282 30.4985,24.72858 40.39,70.88858 10.7155,46.15999 10.7155,109.62993 v 182.16711 h -89.0227 V 415.71558 q 0,-65.94279 -13.1886,-100.56282 -12.3643,-34.62 -58.5243,-34.62 -23.9042,0 -49.457,14.83717 -25.5527,14.83707 -42.8628,42.86277 -17.31,28.02568 -17.31,69.24004 v 187.9371 z m 633.0517,8.24276 q -50.2816,0 -93.9687,-23.90425 -42.8628,-23.90428 -69.2398,-68.41569 -26.3771,-44.51144 -26.3771,-106.33282 0,-59.3485 22.2556,-103.85994 23.0801,-44.51141 64.2942,-69.24001 42.0387,-24.72849 99.7386,-24.72849 34.62,0 62.6458,12.36418 28.85,11.54009 47.8085,28.85005 19.7829,16.48572 26.3771,32.14712 l 1.6485,-63.46992 h 84.9014 v 378.347 h -84.077 l -1.6486,-66.76713 q -8.2429,18.13426 -28.0257,35.44422 -18.9585,17.30997 -46.16,28.85001 -27.2014,10.71567 -60.1728,10.71567 z m 14.8372,-74.18569 q 30.4983,0 55.227,-14.01287 25.5529,-14.83702 40.3901,-41.21416 15.6613,-26.37718 15.6613,-62.64571 v -5.77 q 0,-37.0929 -15.6613,-64.29424 -14.8372,-28.02571 -40.3901,-42.86289 -24.7287,-15.66141 -55.227,-15.66141 -55.2272,0 -83.2531,35.44424 -27.2013,35.44434 -27.2013,87.3743 0,52.75431 27.2013,88.19854 28.0259,35.4442 83.2531,35.4442 z M 2032.645,795.71115 V 217.06283 h 85.7258 v 70.06424 q 18.9584,-33.79567 52.7542,-56.87573 34.6199,-23.07994 89.0227,-23.07994 51.1057,0 91.4957,21.43139 40.3901,21.43138 63.47,65.11859 23.9042,43.68711 23.9042,110.45428 0,60.997 -24.7286,106.33276 -24.7284,44.51142 -65.9428,69.23994 -41.2142,23.90425 -92.3199,23.90425 -48.6328,0 -83.2528,-17.30996 -34.6199,-17.30998 -54.4027,-47.80853 v 257.17703 z m 202.7741,-267.06844 q 56.0516,0 83.253,-35.44437 28.0257,-35.44419 28.0257,-86.54995 0,-53.57851 -28.0257,-88.19853 -27.2014,-34.62001 -83.253,-34.62001 -29.6742,0 -55.2271,14.01284 -25.5528,14.01297 -41.2143,40.39001 -15.6614,26.37715 -15.6614,63.47005 v 5.76998 q 0,36.26856 15.6614,64.29424 15.6615,27.20134 41.2143,42.03854 25.5529,14.83719 55.2271,14.8372 z m 465.7219,75.0099 q -50.2815,0 -93.9686,-23.90425 -42.8627,-23.90428 -69.24,-68.41569 -26.3771,-44.51144 -26.3771,-106.33283 0,-59.3485 22.2556,-103.85994 23.0803,-44.51141 64.2944,-69.24 42.0384,-24.7285 99.7385,-24.7285 34.6198,0 62.6455,12.36418 28.8501,11.54009 47.8088,28.85006 19.7828,16.48571 26.3771,32.14712 l 1.6485,-63.46992 h 84.9016 v 378.347 h -84.0772 l -1.6487,-66.76713 q -8.2428,18.13425 -28.0257,35.44422 -18.9586,17.30997 -46.1599,28.85001 -27.2014,10.71567 -60.1728,10.71567 z m 14.8371,-74.1857 q 30.4986,0 55.227,-14.01287 25.553,-14.83702 40.3901,-41.21416 15.6614,-26.37718 15.6614,-62.64571 v -5.77 q 0,-37.0929 -15.6614,-64.29424 -14.8371,-28.02571 -40.3901,-42.86289 -24.7284,-15.66141 -55.227,-15.66141 -55.2271,0 -83.2529,35.44424 -27.2014,35.44434 -27.2014,87.3743 0,52.75431 27.2014,88.19854 28.0258,35.4442 83.2529,35.4442 z m 310.7556,65.94293 V 217.06283 h 89.0225 v 74.18567 q 13.1888,-37.0929 42.0389,-60.17283 29.6741,-23.90427 68.4157,-23.90427 26.377,0 36.2685,4.94566 l -12.3643,89.84707 q -7.4187,-4.94564 -32.1472,-4.94564 -20.6072,0 -44.5116,9.06708 -23.9042,9.06719 -41.2142,32.14712 -16.4858,22.25571 -16.4858,62.6457 v 194.53145 z m 295.9179,0 V 217.06283 h 92.32 v 378.34701 z m 46.1601,-449.23559 q -25.5529,0 -42.8628,-17.30994 -16.4858,-17.31007 -16.4858,-42.86289 0,-23.080044 16.4858,-39.565779 17.3099,-16.485608 42.8628,-16.485608 25.5528,0 42.0383,16.485608 17.3102,16.485735 17.3102,39.565779 0,25.55282 -17.3102,42.86289 -16.4855,17.30994 -42.0383,17.30994 z"
     id="text1"
     aria-label="napari&#10;"
     inkscape:label="napari" />
  <g
     id="g22"
     inkscape:label="logo">
    <rect
       class="b"
       x="0"
       y="0"
       width="824"
       height="824"
       rx="187.33615"
       id="rect20-8"
       style="fill:#000000;fill-opacity:1;stroke-width:0.217168"
       inkscape:label="outer-border" />
  </g>
</svg>
