<?xml version="1.0" encoding="UTF-8" standalone="no"?>
<svg
   width="824"
   height="1045.3252"
   viewBox="0 0 824 1045.3252"
   version="1.1"
   id="svg22"
   sodipodi:docname="text.svg"
   inkscape:version="1.4.2 (ebf0e940d0, 2025-05-08)"
   inkscape:export-filename="logo.png"
   inkscape:export-xdpi="96"
   inkscape:export-ydpi="96"
   xmlns:inkscape="http://www.inkscape.org/namespaces/inkscape"
   xmlns:sodipodi="http://sodipodi.sourceforge.net/DTD/sodipodi-0.dtd"
   xmlns="http://www.w3.org/2000/svg"
   xmlns:svg="http://www.w3.org/2000/svg"
   xmlns:rdf="http://www.w3.org/1999/02/22-rdf-syntax-ns#"
   xmlns:cc="http://creativecommons.org/ns#"
   xmlns:dc="http://purl.org/dc/elements/1.1/">
  <sodipodi:namedview
     id="namedview22"
     pagecolor="#ffffff"
     bordercolor="#000000"
     borderopacity="0.25"
     inkscape:showpageshadow="2"
     inkscape:pageopacity="0.0"
     inkscape:pagecheckerboard="false"
     inkscape:deskcolor="#d1d1d1"
     showguides="true"
     inkscape:zoom="0.32"
     inkscape:cx="140.625"
     inkscape:cy="1164.0625"
     inkscape:window-width="2558"
     inkscape:window-height="1408"
     inkscape:window-x="0"
     inkscape:window-y="0"
     inkscape:window-maximized="0"
     inkscape:current-layer="svg22" />
  <defs
     id="defs19" />
  <title
     id="title19">Artboard 1</title>
  <metadata
     id="metadata13">
    <rdf:RDF>
      <cc:Work
         rdf:about="">
        <dc:title>Artboard 1</dc:title>
      </cc:Work>
    </rdf:RDF>
  </metadata>
  <path
     style="font-size:67.4159px;font-family:Alata;-inkscape-font-specification:'Alata, Normal';fill:#000000;fill-opacity:1;stroke-width:1.95685;stroke-linecap:round;stroke-linejoin:round"
     d="M 28.328722,980.03328 V 856.70409 h 28.481293 l 0.268569,22.57002 q 4.836483,-11.01634 15.584152,-18.27098 11.016335,-7.52332 26.331651,-7.52332 19.883193,0 29.824803,8.3294 9.94154,8.06075 13.16587,23.10746 3.4929,15.04672 3.4929,35.73591 v 59.3807 h -29.01863 v -58.57464 q 0,-21.49525 -4.29903,-32.78033 -4.03038,-11.28503 -19.077094,-11.28503 -7.792032,0 -16.121425,4.83646 -8.329395,4.83642 -13.971944,13.97193 -5.642522,9.13547 -5.642522,22.57007 v 61.26154 z m 206.354998,2.68694 q -16.39022,0 -30.63086,-7.79197 -13.97192,-7.79216 -22.57001,-22.30143 -8.59809,-14.50932 -8.59809,-34.66117 0,-19.34574 7.25462,-33.85508 7.5234,-14.50931 20.95791,-22.57006 13.70327,-8.0607 32.51163,-8.0607 11.28505,0 20.42058,4.0303 9.40418,3.7617 15.58407,9.40422 6.44859,5.37382 8.5981,10.47895 l 0.53736,-20.68919 h 27.6752 v 123.32919 h -27.40645 l -0.5374,-21.76394 q -2.68691,5.91121 -9.13552,11.5537 -6.17987,5.64254 -15.0467,9.40424 -8.8668,3.49294 -19.61444,3.49294 z m 4.83646,-24.18217 q 9.94151,0 18.00225,-4.56779 8.32946,-4.8364 13.16591,-13.43454 5.10513,-8.59811 5.10513,-20.42053 v -1.88085 q 0,-12.09111 -5.10513,-20.95789 -4.83645,-9.1355 -13.16591,-13.97196 -8.06074,-5.10512 -18.00225,-5.10512 -18.00234,0 -27.1379,11.55369 -8.86678,11.55377 -8.86678,28.48128 0,17.19626 8.86678,28.74999 9.13556,11.55372 27.1379,11.55372 z m 101.29675,86.78715 V 856.70409 h 27.94393 v 22.83874 q 6.17984,-11.01632 17.19622,-18.5397 11.285,-7.52332 29.0186,-7.52332 16.65886,0 29.82473,6.98595 13.16592,6.98593 20.68924,21.2266 7.79202,14.24065 7.79202,36.00463 0,19.8831 -8.06075,34.66116 -8.06067,14.50936 -21.49527,22.5701 -13.43456,7.79197 -30.09341,7.79197 -15.85276,0 -27.13779,-5.64245 -11.28502,-5.64255 -17.73359,-15.58416 v 83.83159 z m 66.09802,-87.05586 q 18.27105,0 27.13786,-11.55374 9.1355,-11.55371 9.1355,-28.21254 0,-17.46497 -9.1355,-28.75 -8.86681,-11.28502 -27.13786,-11.28502 -9.67287,0 -18.00231,4.56776 -8.32941,4.56776 -13.43457,13.16587 -5.10512,8.59812 -5.10512,20.68924 v 1.88083 q 0,11.82243 5.10512,20.95789 5.10516,8.86681 13.43457,13.70327 8.32944,4.83644 18.00231,4.83644 z m 151.81073,24.45088 q -16.39018,0 -30.63081,-7.79197 -13.97189,-7.79216 -22.57007,-22.30143 -8.59811,-14.50932 -8.59811,-34.66117 0,-19.34574 7.25463,-33.85508 7.52345,-14.50931 20.95795,-22.57006 13.7032,-8.0607 32.51163,-8.0607 11.28497,0 20.42047,4.0303 9.40422,3.7617 15.58417,9.40422 6.44857,5.37382 8.5981,10.47895 l 0.53736,-20.68919 h 27.67527 v 123.32919 h -27.40654 l -0.53742,-21.76394 q -2.68689,5.91121 -9.1355,11.5537 -6.17991,5.64254 -15.04668,9.40424 -8.8668,3.49294 -19.61445,3.49294 z m 4.83644,-24.18217 q 9.94158,0 18.00225,-4.56779 8.32949,-4.8364 13.16592,-13.43454 5.10513,-8.59811 5.10513,-20.42053 v -1.88085 q 0,-12.09111 -5.10513,-20.95789 -4.83643,-9.1355 -13.16592,-13.97196 -8.06067,-5.10512 -18.00225,-5.10512 -18.00231,0 -27.13785,11.55369 -8.86679,11.55377 -8.86679,28.48128 0,17.19626 8.86679,28.74999 9.13554,11.55372 27.13785,11.55372 z M 664.8587,980.03328 V 856.70409 h 29.01854 v 24.1822 q 4.29914,-12.09112 13.70337,-19.61448 9.67282,-7.792 22.30137,-7.792 8.59807,0 11.82239,1.61209 l -4.03037,29.28736 q -2.41825,-1.61213 -10.47898,-1.61213 -6.7173,0 -14.50939,2.95556 -7.79202,2.95562 -13.43452,10.47898 -5.37387,7.25467 -5.37387,20.42054 v 63.41107 z m 96.45995,0 V 856.70409 H 791.4121 V 980.03328 Z M 776.3654,833.59663 q -8.32944,0 -13.97192,-5.64251 -5.37386,-5.64254 -5.37386,-13.97194 0,-7.52338 5.37386,-12.89722 5.64248,-5.37379 13.97192,-5.37379 8.32942,0 13.70317,5.37379 5.6426,5.37384 5.6426,12.89722 0,8.3294 -5.6426,13.97194 -5.37375,5.64251 -13.70317,5.64251 z"
     id="text1"
     aria-label="napari&#10;"
     inkscape:label="napari" />
  <g
     id="g22"
     inkscape:label="logo">
    <rect
       class="b"
       x="0"
       y="0"
       width="824"
       height="824"
       rx="187.33615"
       id="rect20-8"
       style="fill:#000000;fill-opacity:1;stroke-width:0.217168"
       inkscape:label="outer-border" />
  </g>
</svg>
